<?xml version="1.0" encoding="UTF-8"?>
<svg version="1.1" xmlns="http://www.w3.org/2000/svg" width="500" height="500">
<path d="M0 0 C1.0209375 -0.02449219 2.041875 -0.04898438 3.09375 -0.07421875 C14.43396924 -0.11739217 24.91912926 3.48101037 33.25 11.375 C35.44003759 14.54714078 36.89377189 17.7768438 38.25 21.375 C38.70826172 22.50808594 38.70826172 22.50808594 39.17578125 23.6640625 C42.32240052 32.10475685 42.4050477 40.97084426 42.34765625 49.8828125 C42.3462413 50.73430878 42.34482635 51.58580505 42.34336853 52.46310425 C42.33783919 55.14210759 42.32530074 57.82102257 42.3125 60.5 C42.30747584 62.33333211 42.30291455 64.16666556 42.29882812 66 C42.28875038 70.4583935 42.26916218 74.91659963 42.25 79.375 C34.33 79.375 26.41 79.375 18.25 79.375 C18.19392578 75.03988281 18.19392578 75.03988281 18.13671875 70.6171875 C18.09046072 67.80721623 18.03924261 64.99737591 17.98754883 62.1875 C17.95436735 60.23999032 17.92631443 58.29238603 17.90356445 56.34472656 C17.86989366 53.53930485 17.81757173 50.73474472 17.76171875 47.9296875 C17.75532883 47.06383026 17.7489389 46.19797302 17.74235535 45.30587769 C17.6208127 40.26836638 17.01879347 36.74820851 14.25 32.375 C10.07834544 28.59443805 6.37393176 28.21895842 0.875 28.1875 C-0.80722656 28.16623047 -0.80722656 28.16623047 -2.5234375 28.14453125 C-5.73687002 28.37406214 -7.89380552 28.91890085 -10.75 30.375 C-17.34314752 38.43329142 -16.08790372 50.53571632 -16.1640625 60.34765625 C-16.18280331 61.88180041 -16.20237882 63.41593458 -16.2227478 64.95005798 C-16.27376778 68.95956493 -16.31355336 72.96910518 -16.35089111 76.97875977 C-16.39821251 81.80482347 -16.45967946 86.63072581 -16.51873779 91.45665741 C-16.60658206 98.76270538 -16.67660895 106.06872822 -16.75 113.375 C3.38 113.375 23.51 113.375 44.25 113.375 C44.25 156.605 44.25 199.835 44.25 244.375 C42.27 244.375 40.29 244.375 38.25 244.375 C37.40615325 242.96457044 36.57530504 241.54635868 35.75 240.125 C35.2859375 239.33609375 34.821875 238.5471875 34.34375 237.734375 C33.25 235.375 33.25 235.375 33.25 231.375 C30.1195627 232.1700271 30.1195627 232.1700271 28 234.625 C19.26874119 243.35625881 9.88351777 245.63008776 -2.3125 245.75 C-9.13862264 245.69032053 -15.34434109 244.88251434 -21.75 242.375 C-22.39066406 242.13136719 -23.03132813 241.88773438 -23.69140625 241.63671875 C-32.54160995 237.45910582 -37.35037479 227.97881704 -40.83984375 219.33203125 C-42.59647629 213.62486028 -42.87579678 207.96650226 -42.88371277 202.02603149 C-42.88597833 201.31994605 -42.88824388 200.61386061 -42.89057809 199.88637865 C-42.89686981 197.53833049 -42.89609186 195.19034077 -42.89526367 192.84228516 C-42.89825815 191.15144273 -42.90166135 189.46060098 -42.90544128 187.76976013 C-42.9142554 183.18913426 -42.91661829 178.60852708 -42.91725707 174.02789354 C-42.91796896 171.1632 -42.92010591 168.29851118 -42.92275429 165.43381882 C-42.93199866 155.43178761 -42.93609025 145.42976971 -42.93530273 135.42773438 C-42.93470197 126.11704493 -42.94525597 116.80641342 -42.9610464 107.49573863 C-42.97413729 99.49042477 -42.97948599 91.48512982 -42.97884732 83.47980535 C-42.97859282 78.7036856 -42.9814177 73.92761738 -42.99202538 69.15150833 C-43.00173262 64.65842831 -43.00176756 60.16544883 -42.99450874 55.67236519 C-42.99346621 54.02810455 -42.99580601 52.38383757 -43.0018692 50.73958778 C-43.05137883 36.37752853 -41.58306915 23.23421321 -32.75 11.375 C-29.46875 8.375 -29.46875 8.375 -26.75 8.375 C-26.75 7.715 -26.75 7.055 -26.75 6.375 C-25.56679424 5.74190809 -24.37812152 5.11903282 -23.1875 4.5 C-22.52621094 4.15195313 -21.86492187 3.80390625 -21.18359375 3.4453125 C-14.08023527 0.32120299 -7.69164497 0.00956672 0 0 Z M-16.75 138.375 C-16.81309771 146.40944143 -16.87318076 154.44297334 -16.90525055 162.47744751 C-16.92102197 166.21977457 -16.9420598 169.9618942 -16.97631836 173.70410156 C-17.00917009 177.31567535 -17.0269067 180.92704934 -17.03463173 184.53876114 C-17.04012936 185.9093248 -17.05086348 187.27987885 -17.06719017 188.65035629 C-17.27366164 202.42576737 -17.27366164 202.42576737 -11.25 214.375 C-6.90574701 217.85040239 -4.78685545 218.63108717 0.75 218.5625 C2.46703125 218.55283203 2.46703125 218.55283203 4.21875 218.54296875 C7.29622101 218.50584584 7.29622101 218.50584584 10.25 217.375 C10.25 216.715 10.25 216.055 10.25 215.375 C11.3946875 215.065625 11.3946875 215.065625 12.5625 214.75 C16.18422143 212.89702624 16.74058012 211.11421415 18.25 207.375 C18.67958107 203.98521276 18.67958107 203.98521276 18.59057617 200.35986328 C18.59101425 199.68599075 18.59145233 199.01211823 18.59190369 198.31782532 C18.58982837 196.11001715 18.56655851 193.90298654 18.54296875 191.6953125 C18.53736828 190.15689509 18.53310031 188.6184723 18.53010559 187.08004761 C18.51869219 183.04562413 18.48925568 179.0115285 18.45599365 174.97723389 C18.41979856 170.12888361 18.40611488 165.28042325 18.38863373 160.43197632 C18.35961576 153.07942338 18.30210496 145.72758875 18.25 138.375 C6.7 138.375 -4.85 138.375 -16.75 138.375 Z " fill="#F8FAFB" transform="translate(285.75,73.625)"/>
<path d="M0 0 C24.42 0 48.84 0 74 0 C72.33906515 6.64373939 69.37562096 12.40516331 66 18.3125 C65.65710938 18.93189453 65.31421875 19.55128906 64.9609375 20.18945312 C63.19189434 23.2987828 62.02887404 24.98075064 59 27 C48.11 26.67 37.22 26.34 26 26 C26 53.72 26 81.44 26 110 C37.88 110 49.76 110 62 110 C62 118.25 62 126.5 62 135 C50.12 135 38.24 135 26 135 C26 169.32 26 203.64 26 239 C17.09 239 8.18 239 -1 239 C-0.67 160.13 -0.34 81.26 0 0 Z " fill="#F7F9FB" transform="translate(171,77)"/>
<path d="M0 0 C95.37 0 190.74 0 289 0 C289.33 0.99 289.66 1.98 290 3 C289.67 3.66 289.34 4.32 289 5 C193.63 5 98.26 5 0 5 C-0.33 4.34 -0.66 3.68 -1 3 C-0.67 2.01 -0.34 1.02 0 0 Z " fill="#94824C" transform="translate(106,331)"/>
<path d="M0 0 C95.37 0 190.74 0 289 0 C288.67 1.65 288.34 3.3 288 5 C193.29 5 98.58 5 1 5 C0.67 3.35 0.34 1.7 0 0 Z " fill="#6C5824" transform="translate(106,422)"/>
<path d="M0 0 C0 1.98 0 3.96 0 6 C-4.95 6 -9.9 6 -15 6 C-15 7.65 -15 9.3 -15 11 C-10.38 11 -5.76 11 -1 11 C-1 12.98 -1 14.96 -1 17 C-5.62 17 -10.24 17 -15 17 C-15 18.65 -15 20.3 -15 22 C-13.39318359 21.98259766 -13.39318359 21.98259766 -11.75390625 21.96484375 C-10.35677257 21.95546701 -8.95963701 21.94636669 -7.5625 21.9375 C-6.85544922 21.92912109 -6.14839844 21.92074219 -5.41992188 21.91210938 C-3.61306441 21.90346412 -1.80612397 21.94779989 0 22 C1 23 1 23 1 29 C-6.92 29 -14.84 29 -23 29 C-22.67 20.42 -22.34 11.84 -22 3 C-22.66 3 -23.32 3 -24 3 C-24.33 3.99 -24.66 4.98 -25 6 C-27.64 6 -30.28 6 -33 6 C-33 13.59 -33 21.18 -33 29 C-35.64 29 -38.28 29 -41 29 C-41 21.41 -41 13.82 -41 6 C-43.64 6 -46.28 6 -49 6 C-49 5.01 -49 4.02 -49 3 C-49.66 3 -50.32 3 -51 3 C-50.67 2.01 -50.34 1.02 -50 0 C-33.2565914 -1.00679618 -16.74720404 -0.89891881 0 0 Z " fill="#EDF2F6" transform="translate(281,382)"/>
<path d="M0 0 C17.35306554 -1.3255814 17.35306554 -1.3255814 22.04296875 2.44921875 C23.9959702 5.22753229 25.60841737 7.90536138 27 11 C27.33 7.37 27.66 3.74 28 0 C30.64 0 33.28 0 36 0 C36 9.57 36 19.14 36 29 C28 29 28 29 26.265625 27.71484375 C25.93046875 27.12832031 25.5953125 26.54179687 25.25 25.9375 C24.86972656 25.30585938 24.48945313 24.67421875 24.09765625 24.0234375 C23.73542969 23.35570312 23.37320313 22.68796875 23 22 C22.60683594 21.33226562 22.21367187 20.66453125 21.80859375 19.9765625 C20.84590182 18.33294213 19.91926562 16.66829686 19 15 C18.67 19.62 18.34 24.24 18 29 C15.69 29 13.38 29 11 29 C11 20.09 11 11.18 11 2 C10.01 2 9.02 2 8 2 C8 10.91 8 19.82 8 29 C5.36 29 2.72 29 0 29 C0 19.43 0 9.86 0 0 Z " fill="#DCE3E9" transform="translate(106,344)"/>
<path d="M0 0 C4.9973575 0.34464534 8.99392393 1.61892393 12.625 5.25 C12.955 3.93 13.285 2.61 13.625 1.25 C21.875 1.25 30.125 1.25 38.625 1.25 C38.625 3.23 38.625 5.21 38.625 7.25 C35.655 7.25 32.685 7.25 29.625 7.25 C30.12 18.635 30.12 18.635 30.625 30.25 C27.655 30.25 24.685 30.25 21.625 30.25 C21.955 22.66 22.285 15.07 22.625 7.25 C19.325 7.25 16.025 7.25 12.625 7.25 C12.625 8.9 12.625 10.55 12.625 12.25 C7.23965632 11.83574279 5.35355671 10.97855671 1.625 7.25 C-1.03404469 6.99846741 -1.03404469 6.99846741 -3.375 8.25 C-6.54403155 12.71545355 -5.1081867 18.14741685 -4.375 23.25 C-0.99682575 24.09454356 1.29965243 24.35844919 4.625 23.25 C4.955 21.93 5.285 20.61 5.625 19.25 C7.935 19.25 10.245 19.25 12.625 19.25 C12.09202236 23.78030991 10.46479945 26.70025069 7.625 30.25 C3.96282255 32.58972449 0.70952117 32.47045737 -3.44921875 31.78125 C-6.55273055 30.92510881 -8.20506088 29.6059339 -10.375 27.25 C-13.83928338 21.03818153 -14.31419628 15.93453924 -12.5625 9.0625 C-11.34881121 6.18797393 -10.28516194 3.72613585 -8.375 1.25 C-5.56030032 0.23358067 -2.98792401 0.2213277 0 0 Z " fill="#D6DEE7" transform="translate(297.375,380.75)"/>
<path d="M0 0 C3.09398257 3.9913093 3.38172811 7.08340122 3.3125 12.0625 C3.30863281 13.27035156 3.30476563 14.47820312 3.30078125 15.72265625 C3.02303477 18.74901074 2.59002018 20.45976855 1 23 C0.34 23 -0.32 23 -1 23 C-1 23.66 -1 24.32 -1 25 C0.65 25.33 2.3 25.66 4 26 C3.76435605 30.08449505 3.59037881 32.34214932 0.8125 35.4375 C-2.54388796 37.30215998 -4.2177434 37.6303761 -8 37 C-11.13928185 35.0736225 -12.68034207 33.83910207 -14 30.375 C-14.77083333 27.77083333 -14.77083333 27.77083333 -17.375 27 C-18.24125 26.67 -19.1075 26.34 -20 26 C-24.88776315 20.56915206 -25.2827934 17.21491451 -25.22265625 10.05859375 C-24.92584966 5.98140847 -24.06357958 3.51572818 -22 0 C-15.1010399 -4.59930673 -7.100398 -3.95983735 0 0 Z M-13.6875 4.125 C-16.1022851 6.08293386 -17.07672567 7.06230895 -18 10 C-18.32369432 13.88433181 -18.30567313 16.77205762 -16 20 C-13.85802796 21.49938043 -12.61652191 22.01926631 -10 21.9375 C-6.96820307 20.51634519 -5.73386852 18.84849829 -4 16 C-3.56748697 11.89112621 -3.38765744 8.35872614 -6 5 C-9.12842933 3.05530069 -10.24401025 2.68353918 -13.6875 4.125 Z M-4 26 C-4.99 26.33 -5.98 26.66 -7 27 C-7 27.99 -7 28.98 -7 30 C-5.68 29.67 -4.36 29.34 -3 29 C-3.33 28.01 -3.66 27.02 -4 26 Z " fill="#D7DFE6" transform="translate(188,384)"/>
<path d="M0 0 C6.0546875 -0.1953125 6.0546875 -0.1953125 8 0 C10 2 10 2 10 6 C10.66 6 11.32 6 12 6 C13.38938077 7.96147874 14.7260411 9.96166576 16 12 C16.33 8.04 16.66 4.08 17 0 C19.64 0 22.28 0 25 0 C25 9.57 25 19.14 25 29 C22.36 29 19.72 29 17 29 C16.34 27.35 15.68 25.7 15 24 C14.34 24 13.68 24 13 24 C12.34 22.02 11.68 20.04 11 18 C10.34 18 9.68 18 9 18 C8.67 17.01 8.34 16.02 8 15 C7.67 19.62 7.34 24.24 7 29 C4.69 29 2.38 29 0 29 C-1.101173 25.69648101 -1.03109831 23.48612828 -0.87890625 20.01953125 C-0.83056641 18.85615234 -0.78222656 17.69277344 -0.73242188 16.49414062 C-0.67634766 15.27919922 -0.62027344 14.06425781 -0.5625 12.8125 C-0.51029297 11.58595703 -0.45808594 10.35941406 -0.40429688 9.09570312 C-0.27451599 6.06354982 -0.13954569 3.03171706 0 0 Z " fill="#EBF0F2" transform="translate(201,344)"/>
<path d="M0 0 C2.98774472 1.32225991 3.86782758 2.34919105 6 5 C6.875 8.3125 6.875 8.3125 7 11 C6.34 11 5.68 11 5 11 C5 11.66 5 12.32 5 13 C5.66 13 6.32 13 7 13 C7 18.61 7 24.22 7 30 C3.99779754 30.38738096 1.01325825 30.7240443 -2 31 C-2.86238281 31.07992188 -3.72476563 31.15984375 -4.61328125 31.2421875 C-8.9090336 31.46381964 -12.00976146 31.5214686 -15.5 28.8125 C-19.40742993 24.41664132 -20.27970288 20.82176398 -20.25 15 C-20.25515625 13.989375 -20.2603125 12.97875 -20.265625 11.9375 C-19.86105571 7.46343956 -18.84961818 4.82725981 -15.625 1.6875 C-10.39141773 -0.74882278 -5.67663958 -0.89304179 0 0 Z M-10.6875 8 C-13.83069368 12.07765667 -13.48877532 13.94932171 -13 19 C-12.24849977 22.27773504 -12.24849977 22.27773504 -9 24 C-5.87478167 24.16699232 -5.87478167 24.16699232 -3 24 C-2.34 22.68 -1.68 21.36 -1 20 C-2.65 20 -4.3 20 -6 20 C-6 17.69 -6 15.38 -6 13 C-3.36 13 -0.72 13 2 13 C2.33 12.01 2.66 11.02 3 10 C1.68 10.33 0.36 10.66 -1 11 C-1 10.01 -1 9.02 -1 8 C-4.96591963 5.81190641 -6.82106427 5.12265248 -10.6875 8 Z " fill="#DDE3EA" transform="translate(165,343)"/>
<path d="M0 0 C3.96673981 1.90009865 6.41256552 4.93531349 8 9 C8.30078125 12.05859375 8.30078125 12.05859375 8.3125 15.4375 C8.33763672 17.10619141 8.33763672 17.10619141 8.36328125 18.80859375 C7.81589574 23.61734607 5.97878305 26.11670798 2.4375 29.3125 C-2.16110549 31.56999724 -5.96375927 31.82708994 -11 31 C-14.4375 29.1875 -14.4375 29.1875 -17 27 C-17.598125 26.525625 -18.19625 26.05125 -18.8125 25.5625 C-21.70531342 21.75616655 -21.30896162 16.55718395 -21 12 C-20.16473339 9.2319653 -19.12505729 6.67201106 -18 4 C-17.34 4 -16.68 4 -16 4 C-16 3.34 -16 2.68 -16 2 C-11.00542669 -0.97523626 -5.63466657 -0.74576469 0 0 Z M-11 8 C-13.68450733 12.026761 -13.67304618 15.27163759 -13 20 C-11.64237846 22.77564845 -11.64237846 22.77564845 -9 24 C-5.40528996 24.24838381 -5.40528996 24.24838381 -2 23 C0.21278489 20.71806558 0.96760679 19.18697986 1.0546875 15.99609375 C0.80116882 13.0034711 0.38689786 10.57113493 -1.3125 8.0625 C-5.01616829 5.7305607 -7.30041829 5.5336122 -11 8 Z " fill="#E0E7ED" transform="translate(312,343)"/>
<path d="M0 0 C3.78542687 5.92501597 4.06747065 11.37938255 3.4375 18.25 C2.56907337 22.008659 1.2325316 24.56854434 -1.75 27.125 C-7.10997806 29.26899123 -10.87377573 29.78476268 -16.3125 28.0625 C-20.01205969 25.99928402 -22.65158345 24.07183311 -24.5625 20.25 C-24.7134482 17.79709172 -24.79378564 15.39141991 -24.8125 12.9375 C-24.83828125 11.62136719 -24.8640625 10.30523437 -24.890625 8.94921875 C-24.54778315 5.08408499 -23.92329233 3.27821259 -21.5625 0.25 C-15.50202181 -3.79031879 -6.12447214 -4.18256634 0 0 Z M-14.125 4.6875 C-17.13063159 7.84726654 -17.31801456 9.81764551 -17.71484375 14.03125 C-17.53892919 16.5932877 -16.93413916 18.0899016 -15.5625 20.25 C-13.30553573 21.83612501 -13.30553573 21.83612501 -10.5625 22.25 C-7.72831209 21.06359576 -6.08340208 19.91296628 -4.1875 17.5 C-3.23241051 14.06167782 -3.65828339 11.68602312 -4.5625 8.25 C-6.85449403 5.28949126 -6.85449403 5.28949126 -9.5625 3.25 C-11.76147979 3.08691634 -11.76147979 3.08691634 -14.125 4.6875 Z " fill="#DCE2EA" transform="translate(361.5625,383.75)"/>
<path d="M0 0 C6.93 0 13.86 0 21 0 C21 0.66 21 1.32 21 2 C21.66 2 22.32 2 23 2 C24.97905281 5.26317105 25.12726596 7.24974748 24.625 11 C23.93442365 17.02020085 23.90492595 22.946952 24 29 C21.66705225 29.04241723 19.33297433 29.04092937 17 29 C15.41727399 27.41727399 15.65264253 25.61965997 15.4375 23.4375 C15.35371094 22.61121094 15.26992187 21.78492188 15.18359375 20.93359375 C15.12300781 20.29550781 15.06242188 19.65742188 15 19 C12.69 18.67 10.38 18.34 8 18 C8 21.63 8 25.26 8 29 C5.36 29 2.72 29 0 29 C0 19.43 0 9.86 0 0 Z M8 6 C8 7.98 8 9.96 8 12 C10.64 12 13.28 12 16 12 C16.38218767 10.34385343 16.71395102 8.67542976 17 7 C16.01732141 5.79438816 16.01732141 5.79438816 14.15234375 5.90234375 C12.1015625 5.93489583 10.05078125 5.96744792 8 6 Z " fill="#DDE4E9" transform="translate(136,382)"/>
<path d="M0 0 C3.196875 -0.0825 6.39375 -0.165 9.6875 -0.25 C10.68612061 -0.28641602 11.68474121 -0.32283203 12.71362305 -0.36035156 C16.97105078 -0.4135426 19.3709324 -0.381422 23.0859375 1.87109375 C25.37490708 4.41698849 25.92051496 5.58214348 26 9 C25.50378459 10.58788931 25.00444028 12.17495849 24.48046875 13.75390625 C23.41712617 18.72481669 23.86311268 23.94277405 24 29 C21.69 29 19.38 29 17 29 C16.93941406 28.36191406 16.87882812 27.72382813 16.81640625 27.06640625 C16.69072266 25.82697266 16.69072266 25.82697266 16.5625 24.5625 C16.48128906 23.73878906 16.40007812 22.91507812 16.31640625 22.06640625 C16.21069185 20.01337975 16.21069185 20.01337975 15 19 C12.67182036 18.63239269 10.3381615 18.29758419 8 18 C8 21.63 8 25.26 8 29 C5.36 29 2.72 29 0 29 C0 19.43 0 9.86 0 0 Z M8 6 C8 7.98 8 9.96 8 12 C10.64 12 13.28 12 16 12 C16.66 10.68 17.32 9.36 18 8 C16.23863645 5.81668311 16.23863645 5.81668311 14.0546875 5.8046875 C11.02734375 5.90234375 11.02734375 5.90234375 8 6 Z " fill="#D7DEE5" transform="translate(264,344)"/>
<path d="M0 0 C2.64 0 5.28 0 8 0 C8.01981934 0.62567871 8.03963867 1.25135742 8.06005859 1.89599609 C8.15514226 4.72276519 8.26488746 7.54877815 8.375 10.375 C8.4059375 11.35984375 8.436875 12.3446875 8.46875 13.359375 C8.50742188 14.30039062 8.54609375 15.24140625 8.5859375 16.2109375 C8.6173584 17.08024902 8.6487793 17.94956055 8.68115234 18.84521484 C8.81229433 21.20961794 8.81229433 21.20961794 11 23 C12.65 23 14.3 23 16 23 C16 15.41 16 7.82 16 0 C18.97 0 21.94 0 25 0 C25.05827558 3.5624308 25.09368885 7.12473819 25.125 10.6875 C25.14175781 11.69490234 25.15851563 12.70230469 25.17578125 13.74023438 C25.18222656 14.71669922 25.18867188 15.69316406 25.1953125 16.69921875 C25.20578613 17.59471436 25.21625977 18.49020996 25.22705078 19.4128418 C24.91062746 23.01836644 24.16341165 26.02229725 21.3359375 28.3984375 C16.01982532 31.04590373 12.80022413 31.42628462 7 30 C3.17931399 28.25577378 1.52735119 26.87901408 0 23 C-0.22705078 20.43457031 -0.22705078 20.43457031 -0.1953125 17.578125 C-0.18564453 16.04091797 -0.18564453 16.04091797 -0.17578125 14.47265625 C-0.15902344 13.40917969 -0.14226562 12.34570312 -0.125 11.25 C-0.11597656 10.17105469 -0.10695312 9.09210938 -0.09765625 7.98046875 C-0.07411305 5.32008722 -0.04122799 2.66015664 0 0 Z " fill="#BFCCD5" transform="translate(194,382)"/>
<path d="M0 0 C3.48770261 2.3935214 4.64802051 3.78160945 5.8125 7.8125 C5.874375 8.534375 5.93625 9.25625 6 10 C2.6875 10.1875 2.6875 10.1875 -1 10 C-2.0194119 9.01979625 -3.02246356 8.02196992 -4 7 C-6.65466049 7.23043864 -6.65466049 7.23043864 -9 8 C-8.18274324 10.21602529 -8.18274324 10.21602529 -5.85546875 10.74609375 C-4.08477607 11.20497018 -2.31394384 11.66330846 -0.54296875 12.12109375 C2.19722941 13.06816685 3.91102782 13.99065232 6 16 C7.12624814 18.99212191 7.34514619 21.82688176 7 25 C4.83653764 27.80665387 3.15193199 29.424034 0 31 C-5.98141127 31.55941256 -10.87594764 31.45873534 -16 28 C-18.1519437 24.77208445 -18.20086443 23.71599191 -18 20 C-14.625 19.8125 -14.625 19.8125 -11 20 C-10.34 20.99 -9.68 21.98 -9 23 C-5.41642759 23.25015873 -5.41642759 23.25015873 -2 23 C-2 22.01 -2 21.02 -2 20 C-2.59167969 19.89042969 -3.18335938 19.78085937 -3.79296875 19.66796875 C-12.72838606 17.87505467 -12.72838606 17.87505467 -16 15 C-17.85868914 10.89539482 -18.34637101 8.96619282 -16.8125 4.6875 C-12.67605918 -1.44584328 -6.76014284 -0.89405398 0 0 Z " fill="#E8EBEE" transform="translate(340,343)"/>
<path d="M0 0 C2.56936861 3.36675887 3 4.66598665 3 9 C0.69 9 -1.62 9 -4 9 C-4.66 7.68 -5.32 6.36 -6 5 C-8.31 5 -10.62 5 -13 5 C-13 5.99 -13 6.98 -13 8 C-12.34773438 8.18175781 -11.69546875 8.36351562 -11.0234375 8.55078125 C-6.09666516 9.96777329 -1.4469996 11.37741049 3 14 C4.55024464 17.10048928 4.28992015 19.57894218 4 23 C2.2170386 25.97160234 0.69698992 27.57406172 -2.25 29.375 C-7.21340007 30.50304547 -12.14832376 29.41507224 -17 28 C-17 27.34 -17 26.68 -17 26 C-17.66 26 -18.32 26 -19 26 C-20.76462683 22.91190305 -21 21.76687864 -21 18 C-18.36 18 -15.72 18 -13 18 C-12.67 18.99 -12.34 19.98 -12 21 C-8.02245872 21.73334429 -8.02245872 21.73334429 -4 22 C-4.33 20.68 -4.66 19.36 -5 18 C-8.96 17.01 -12.92 16.02 -17 15 C-17 14.34 -17 13.68 -17 13 C-17.66 13 -18.32 13 -19 13 C-20.59518898 9.80962203 -20.3780785 6.47144801 -20 3 C-18.8125 0.5625 -18.8125 0.5625 -17 -1 C-11.5385965 -2.82046783 -5.03784182 -2.93874106 0 0 Z " fill="#EBF0F3" transform="translate(388,383)"/>
<path d="M0 0 C0.9583374 0.00523682 1.9166748 0.01047363 2.90405273 0.01586914 C4.45576172 0.02070313 4.45576172 0.02070313 6.03881836 0.02563477 C7.12743164 0.03401367 8.21604492 0.04239258 9.33764648 0.05102539 C10.97636719 0.05779297 10.97636719 0.05779297 12.64819336 0.06469727 C15.35723144 0.07652713 18.06616248 0.09300996 20.77514648 0.11352539 C20.77514648 2.09352539 20.77514648 4.07352539 20.77514648 6.11352539 C17.83128025 7.58545851 15.40124612 6.96288712 12.15014648 6.67602539 C10.96163086 6.57418945 9.77311523 6.47235352 8.54858398 6.36743164 C7.63334961 6.28364258 6.71811523 6.19985352 5.77514648 6.11352539 C5.77514648 7.43352539 5.77514648 8.75352539 5.77514648 10.11352539 C10.06514648 10.11352539 14.35514648 10.11352539 18.77514648 10.11352539 C18.77514648 12.42352539 18.77514648 14.73352539 18.77514648 17.11352539 C14.48514648 17.11352539 10.19514648 17.11352539 5.77514648 17.11352539 C5.77514648 18.76352539 5.77514648 20.41352539 5.77514648 22.11352539 C10.72514648 22.11352539 15.67514648 22.11352539 20.77514648 22.11352539 C20.77514648 24.42352539 20.77514648 26.73352539 20.77514648 29.11352539 C13.51514648 29.11352539 6.25514648 29.11352539 -1.22485352 29.11352539 C-1.53290456 25.14450411 -1.83775777 21.17544593 -2.13427734 17.20556641 C-2.23620408 15.85418367 -2.34004078 14.50294361 -2.44580078 13.15185547 C-2.5971874 11.21368034 -2.74121478 9.27493478 -2.88500977 7.33618164 C-2.97403564 6.16837158 -3.06306152 5.00056152 -3.15478516 3.79736328 C-3.17790771 2.91169678 -3.20103027 2.02603027 -3.22485352 1.11352539 C-2.22485352 0.11352539 -2.22485352 0.11352539 0 0 Z " fill="#D0D9E6" transform="translate(241.224853515625,343.886474609375)"/>
<path d="M0 0 C7.26 0 14.52 0 22 0 C22 1.98 22 3.96 22 6 C17.05 6 12.1 6 7 6 C7 7.32 7 8.64 7 10 C11.29 10 15.58 10 20 10 C20 12.31 20 14.62 20 17 C15.71 17 11.42 17 7 17 C7 18.65 7 20.3 7 22 C11.95 22 16.9 22 22 22 C22 24.31 22 26.62 22 29 C14.74 29 7.48 29 0 29 C0 19.43 0 9.86 0 0 Z " fill="#CAD3DD" transform="translate(176,344)"/>
<path d="M0 0 C2.97 0 5.94 0 9 0 C16.76595745 19.34042553 16.76595745 19.34042553 19 29 C16.03 29 13.06 29 10 29 C9.67 27.02 9.34 25.04 9 23 C5.04 23.495 5.04 23.495 1 24 C0.01 26.475 0.01 26.475 -1 29 C-3.64 29 -6.28 29 -9 29 C-9.17238268 25.36719454 -8.76905566 22.88436806 -7.3125 19.5625 C-5.47577824 15.21098358 -3.8230478 10.82660674 -2.25 6.375 C-1.82203125 5.16585938 -1.3940625 3.95671875 -0.953125 2.7109375 C-0.63859375 1.81632812 -0.3240625 0.92171875 0 0 Z M4 11 C2.70366379 12.06645115 2.70366379 12.06645115 2.9375 14.5625 C2.958125 15.366875 2.97875 16.17125 3 17 C3.99 17 4.98 17 6 17 C5.67 15.02 5.34 13.04 5 11 C4.67 11 4.34 11 4 11 Z " fill="#E1E8ED" transform="translate(115,382)"/>
<path d="M0 0 C95.37 0 190.74 0 289 0 C289 0.33 289 0.66 289 1 C287.34345209 1.00634791 287.34345209 1.00634791 285.65343857 1.01282406 C258.80549819 1.11593014 231.95758515 1.22466729 205.10969162 1.33933926 C192.12635961 1.39466237 179.14302485 1.4481429 166.15966797 1.49731445 C154.84590799 1.54016742 143.53216817 1.58644827 132.21843934 1.63687855 C126.22564722 1.66347048 120.23285907 1.68832338 114.24004364 1.70907402 C108.60291859 1.72864714 102.96583188 1.75279304 97.32874107 1.78049088 C95.25667962 1.78985771 93.18460975 1.79753432 91.11253548 1.80341911 C88.28939796 1.81168648 85.46635334 1.82596506 82.64324951 1.84178162 C81.40589574 1.84324878 81.40589574 1.84324878 80.14354491 1.84474558 C76.57941555 1.87052411 73.43667602 2.12118485 70 3 C67.7693019 3.08759059 65.53612422 3.11765949 63.30371094 3.11352539 C62.30797058 3.11374443 62.30797058 3.11374443 61.29211426 3.1139679 C59.1061675 3.11327332 56.92030681 3.10550231 54.734375 3.09765625 C53.21551561 3.09579045 51.69665562 3.09436731 50.17779541 3.09336853 C46.18622161 3.0895561 42.19468438 3.0797367 38.203125 3.06866455 C33.41066239 3.05662139 28.61818753 3.05204212 23.82571411 3.04621124 C16.55045067 3.03652425 9.27526741 3.0173588 2 3 C31.7 3.495 31.7 3.495 62 4 C62 4.33 62 4.66 62 5 C41.87 5 21.74 5 1 5 C0.67 3.35 0.34 1.7 0 0 Z " fill="#665B35" transform="translate(106,422)"/>
<path d="M0 0 C69.63 0 139.26 0 211 0 C211 0.99 211 1.98 211 3 C141.7 3 72.4 3 1 3 C0.67 2.01 0.34 1.02 0 0 Z " fill="#B79C51" transform="translate(184,423)"/>
<path d="M0 0 C0 1.98 0 3.96 0 6 C-1.65 6.33 -3.3 6.66 -5 7 C-4.67 7.99 -4.34 8.98 -4 10 C0.0916861 11.80795432 3.55719328 12.21156222 8 12 C9.56757067 16.70271202 9.0224892 21.1899804 8 26 C5.80476434 28.94984792 4.44317315 29.7568567 0.84375 30.36328125 C-3.26919553 30.60320307 -5.4487496 30.3445315 -9 28.125 C-11.64717893 25.31237239 -11.97961009 24.55052765 -12.125 20.625 C-12.02740419 17.79472165 -11.72197428 15.68161876 -11 13 C-11.33 12.67 -11.66 12.34 -12 12 C-12.46482213 5.84110672 -12.46482213 5.84110672 -10.6875 2.625 C-7.49425747 -0.44997429 -4.19836659 -0.09329704 0 0 Z M0 14 C0 14.99 0 15.98 0 17 C-1.65 17.33 -3.3 17.66 -5 18 C-5 19.65 -5 21.3 -5 23 C-3.00045254 23.04254356 -0.99958364 23.04080783 1 23 C2.20561184 22.01732141 2.20561184 22.01732141 2.09765625 20.15234375 C2.08605469 19.42144531 2.07445312 18.69054687 2.0625 17.9375 C2.041875 16.638125 2.02125 15.33875 2 14 C1.34 14 0.68 14 0 14 Z " fill="#C3CDD7" transform="translate(375,344)"/>
<path d="M0 0 C-0.66 1.98 -1.32 3.96 -2 6 C-4.64 6 -7.28 6 -10 6 C-10 13.59 -10 21.18 -10 29 C-12.64 29 -15.28 29 -18 29 C-18 21.41 -18 13.82 -18 6 C-20.64 6 -23.28 6 -26 6 C-26 5.01 -26 4.02 -26 3 C-26.66 3 -27.32 3 -28 3 C-27.67 2.01 -27.34 1.02 -27 0 C-23.06290089 -0.19665429 -19.12531328 -0.38075477 -15.1875 -0.5625 C-14.06794922 -0.61857422 -12.94839844 -0.67464844 -11.79492188 -0.73242188 C-10.72177734 -0.78076172 -9.64863281 -0.82910156 -8.54296875 -0.87890625 C-7.0583313 -0.94960327 -7.0583313 -0.94960327 -5.54370117 -1.02172852 C-3 -1 -3 -1 0 0 Z " fill="#D2DCE4" transform="translate(258,382)"/>
<path d="M0 0 C7.92 0 15.84 0 24 0 C24 1.65 24 3.3 24 5 C21.03 5 18.06 5 15 5 C15.33 12.59 15.66 20.18 16 28 C13.03 28 10.06 28 7 28 C7.33 20.41 7.66 12.82 8 5 C5.03 5 2.06 5 -1 5 C-0.67 3.35 -0.34 1.7 0 0 Z " fill="#E4EAF1" transform="translate(312,383)"/>
<path d="M0 0 C6.0546875 -0.1953125 6.0546875 -0.1953125 8 0 C10 2 10 2 10 6 C10.66 6 11.32 6 12 6 C14 9 14 9 13.75 11.4375 C13.05282249 13.81952314 12.20252143 15.83546142 11 18 C10.34 18 9.68 18 9 18 C8.67 17.01 8.34 16.02 8 15 C7.67 19.62 7.34 24.24 7 29 C4.69 29 2.38 29 0 29 C-1.101173 25.69648101 -1.03109831 23.48612828 -0.87890625 20.01953125 C-0.83056641 18.85615234 -0.78222656 17.69277344 -0.73242188 16.49414062 C-0.67634766 15.27919922 -0.62027344 14.06425781 -0.5625 12.8125 C-0.51029297 11.58595703 -0.45808594 10.35941406 -0.40429688 9.09570312 C-0.27451599 6.06354982 -0.13954569 3.03171706 0 0 Z " fill="#E6EEF2" transform="translate(201,344)"/>
<path d="M0 0 C2.99419602 1.31452508 3.86654452 2.34759589 6 5 C6.875 8.3125 6.875 8.3125 7 11 C6.34 11 5.68 11 5 11 C5.33 11.66 5.66 12.32 6 13 C6.07181821 15.71760108 6.09299506 18.40859388 6.0625 21.125 C6.05798828 21.87910156 6.05347656 22.63320313 6.04882812 23.41015625 C6.03703499 25.27347127 6.01909942 27.13674555 6 29 C4.35 29 2.7 29 1 29 C1.33 28.34 1.66 27.68 2 27 C1.70700977 25.32577014 1.37309899 23.65821773 1 22 C1 21.34 1 20.68 1 20 C-1.31 19.67 -3.62 19.34 -6 19 C-6 17.02 -6 15.04 -6 13 C-2.92382812 12.70703125 -2.92382812 12.70703125 0.15234375 12.4140625 C0.76207031 12.27742188 1.37179688 12.14078125 2 12 C2.33 11.34 2.66 10.68 3 10 C1.68 10.33 0.36 10.66 -1 11 C-1 10.01 -1 9.02 -1 8 C-5.77762638 6.98312954 -5.77762638 6.98312954 -10.4375 7.9375 C-10.953125 8.288125 -11.46875 8.63875 -12 9 C-11.67 8.01 -11.34 7.02 -11 6 C-11.33 5.67 -11.66 5.34 -12 5 C-13.65 5.66 -15.3 6.32 -17 7 C-16.64170025 4.40232678 -16.24065386 3.23002032 -14.3203125 1.39453125 C-9.92445575 -1.24742306 -4.94411697 -0.69970147 0 0 Z " fill="#D9E2E8" transform="translate(165,343)"/>
<path d="M0 0 C4.86620817 4.7414336 6.15779065 6.52742847 6.25 13.3125 C6.27578125 14.44300781 6.3015625 15.57351563 6.328125 16.73828125 C5.83816346 21.60873228 4.01635552 24.08280112 0.4375 27.3125 C-4.14696097 29.56305357 -7.98680673 29.35666988 -13 29 C-13.33 26.03 -13.66 23.06 -14 20 C-12.741875 20.226875 -11.48375 20.45375 -10.1875 20.6875 C-7.00065536 21.10806755 -7.00065536 21.10806755 -4.0625 20 C-2.12923331 16.36090976 -1.71342174 12.59665032 -2.4375 8.5625 C-2.7159375 7.7890625 -2.7159375 7.7890625 -3 7 C-2.34 7 -1.68 7 -1 7 C-0.67 4.69 -0.34 2.38 0 0 Z " fill="#D6DEE5" transform="translate(314,345)"/>
<path d="M0 0 C3.3 0 6.6 0 10 0 C10 0.66 10 1.32 10 2 C9.34 2 8.68 2 8 2 C8 10.91 8 19.82 8 29 C5.36 29 2.72 29 0 29 C0 19.43 0 9.86 0 0 Z " fill="#CBD3DC" transform="translate(106,344)"/>
<path d="M0 0 C2.56936861 3.36675887 3 4.66598665 3 9 C0.69 9 -1.62 9 -4 9 C-4.66 7.68 -5.32 6.36 -6 5 C-8.31 5 -10.62 5 -13 5 C-12.65555119 7.47266765 -12.65555119 7.47266765 -12 10 C-11.34 10.33 -10.68 10.66 -10 11 C-10.99 11.66 -11.98 12.32 -13 13 C-13 13.66 -13 14.32 -13 15 C-14.32 15 -15.64 15 -17 15 C-17 14.34 -17 13.68 -17 13 C-17.66 13 -18.32 13 -19 13 C-20.59518898 9.80962203 -20.3780785 6.47144801 -20 3 C-18.8125 0.5625 -18.8125 0.5625 -17 -1 C-11.5385965 -2.82046783 -5.03784182 -2.93874106 0 0 Z " fill="#DAE2E9" transform="translate(388,383)"/>
<path d="M0 0 C2.64 0 5.28 0 8 0 C7.67 9.57 7.34 19.14 7 29 C4.36 29 1.72 29 -1 29 C-1.02465881 25.03069011 -1.04284023 21.06140966 -1.05493164 17.09204102 C-1.05997057 15.74079614 -1.06680177 14.38955674 -1.07543945 13.03833008 C-1.08752419 11.09979566 -1.09269828 9.161222 -1.09765625 7.22265625 C-1.10289307 6.05484619 -1.10812988 4.88703613 -1.11352539 3.68383789 C-1 1 -1 1 0 0 Z " fill="#E5F0F4" transform="translate(229,344)"/>
<path d="M0 0 C3.48770261 2.3935214 4.64802051 3.78160945 5.8125 7.8125 C5.874375 8.534375 5.93625 9.25625 6 10 C2.6875 10.1875 2.6875 10.1875 -1 10 C-2.0194119 9.01979625 -3.02246356 8.02196992 -4 7 C-6.65466049 7.23043864 -6.65466049 7.23043864 -9 8 C-8.10664203 10.35785318 -8.10664203 10.35785318 -4.9375 11.125 C-3.4834375 11.558125 -3.4834375 11.558125 -2 12 C-2 12.33 -2 12.66 -2 13 C-5.96 13 -9.92 13 -14 13 C-14 13.66 -14 14.32 -14 15 C-14.66 15 -15.32 15 -16 15 C-17.54430443 10.93604096 -18.30680442 8.85582286 -16.8125 4.6875 C-12.67605918 -1.44584328 -6.76014284 -0.89405398 0 0 Z " fill="#D0D8DE" transform="translate(340,343)"/>
<path d="M0 0 C1.32 0.33 2.64 0.66 4 1 C4.33 2.65 4.66 4.3 5 6 C6.98 6 8.96 6 11 6 C9.68 7.32 8.36 8.64 7 10 C7.99 10.33 8.98 10.66 10 11 C8.35 11 6.7 11 5 11 C5 13.31 5 15.62 5 18 C10.28 18 15.56 18 21 18 C21 19.65 21 21.3 21 23 C14.07 23 7.14 23 0 23 C0 15.41 0 7.82 0 0 Z " fill="#F8FDFD" transform="translate(177,349)"/>
<path d="M0 0 C20.13 0 40.26 0 61 0 C61 43.23 61 86.46 61 131 C59.02 131 57.04 131 55 131 C55 130.34 55 129.68 55 129 C55.99 128.67 56.98 128.34 58 128 C59.24742968 125.50514065 59.13863155 123.80652974 59.15821838 121.01400757 C59.1680072 119.95948898 59.17779602 118.9049704 59.18788147 117.8184967 C59.19363693 116.65684494 59.1993924 115.49519318 59.20532227 114.29833984 C59.21522186 113.07885147 59.22512146 111.8593631 59.23532104 110.60292053 C59.2615435 107.25397739 59.28339119 103.90505854 59.30332303 100.55607557 C59.325167 97.05799747 59.35256345 93.55996305 59.37937927 90.06192017 C59.4293277 83.43568317 59.47425853 76.80942196 59.51740164 70.18313754 C59.57159481 61.9007049 59.63245884 53.61832307 59.69335938 45.3359375 C59.80199718 30.55733065 59.90051592 15.7786776 60 1 C40.2 1 20.4 1 0 1 C0 0.67 0 0.34 0 0 Z " fill="#7287A2" transform="translate(269,187)"/>
<path d="M0 0 C2.31 0 4.62 0 7 0 C7 9.57 7 19.14 7 29 C4.69 29 2.38 29 0 29 C-0.16729064 25.03092526 -0.32788226 21.06164279 -0.48217773 17.09204102 C-0.53565802 15.74072921 -0.59099194 14.38948948 -0.64819336 13.03833008 C-0.72993571 11.09997011 -0.80453323 9.16131296 -0.87890625 7.22265625 C-0.9260376 6.05484619 -0.97316895 4.88703613 -1.02172852 3.68383789 C-1 1 -1 1 0 0 Z " fill="#D1DAE2" transform="translate(222,382)"/>
<path d="M0 0 C-1.32 2.97 -2.64 5.94 -4 9 C-4.66 7.68 -5.32 6.36 -6 5 C-8.84113965 3.95326434 -10.33538727 3.75314384 -13.1875 4.8125 C-15.13894384 6.00297433 -15.13894384 6.00297433 -17 8 C-17.5775 7.62875 -18.155 7.2575 -18.75 6.875 C-21 5.70833333 -21 5.70833333 -23.25 6.875 C-24.11625 7.431875 -24.11625 7.431875 -25 8 C-24.57507874 6.70414084 -24.13454118 5.4133956 -23.6875 4.125 C-23.44386719 3.40570313 -23.20023438 2.68640625 -22.94921875 1.9453125 C-22 0 -22 0 -19 -2 C-11.91122465 -3.96910426 -6.45429676 -3.16128821 0 0 Z " fill="#D4DCE4" transform="translate(188,384)"/>
<path d="M0 0 C3 1 3 1 5 4 C5 6.64 5 9.28 5 12 C10.28 12 15.56 12 21 12 C21 13.98 21 15.96 21 18 C14.07 17.67 7.14 17.34 0 17 C0 11.39 0 5.78 0 0 Z " fill="#F7FBFC" transform="translate(241,355)"/>
<path d="M0 0 C0.33 0 0.66 0 1 0 C1 5.61 1 11.22 1 17 C-5.38226945 17.82351864 -11.56744599 18.12086218 -18 18 C-18.66 16.35 -19.32 14.7 -20 13 C-19 11.5 -19 11.5 -17 10 C-15.08984375 9.90625 -15.08984375 9.90625 -12.9375 10 C-11.638125 10 -10.33875 10 -9 10 C-8.34 9.01 -7.68 8.02 -7 7 C-8.65 7 -10.3 7 -12 7 C-12 6.67 -12 6.34 -12 6 C-8.625 5.8125 -8.625 5.8125 -5 6 C-4.01 7.485 -4.01 7.485 -3 9 C-3.66 9 -4.32 9 -5 9 C-4.22520264 11.99152582 -4.22520264 11.99152582 -3 15 C-2.01 15.33 -1.02 15.66 0 16 C0 10.72 0 5.44 0 0 Z " fill="#CAD4DD" transform="translate(171,356)"/>
<path d="M0 0 C1.65 0 3.3 0 5 0 C6.56757067 4.70271202 6.0224892 9.1899804 5 14 C3 16.6875 3 16.6875 0 18 C-3.80701753 18.43396055 -7.51757363 18.74121319 -11 17 C-10 14 -10 14 -8.22265625 12.83203125 C-7.50980469 12.49558594 -6.79695313 12.15914063 -6.0625 11.8125 C-5.35222656 11.46832031 -4.64195312 11.12414062 -3.91015625 10.76953125 C-2 10 -2 10 0 10 C0 6.7 0 3.4 0 0 Z " fill="#CFD9E1" transform="translate(378,356)"/>
<path d="M0 0 C6.93 0 13.86 0 21 0 C21 0.66 21 1.32 21 2 C21.66 2 22.32 2 23 2 C24.91729577 4.81955261 24.99331618 6.07619554 24.6875 9.5625 C24 13 24 13 23 16 C21 15 21 15 20 13 C19.01 12.34 18.02 11.68 17 11 C17 11.66 17 12.32 17 13 C13.7 13 10.4 13 7 13 C7 10.36 7 7.72 7 5 C7.71027344 4.93941406 8.42054688 4.87882812 9.15234375 4.81640625 C10.53099609 4.69072266 10.53099609 4.69072266 11.9375 4.5625 C12.85402344 4.48128906 13.77054688 4.40007812 14.71484375 4.31640625 C16.96159732 4.23955024 16.96159732 4.23955024 18 3 C18 2.67 18 2.34 18 2 C15.37438891 1.91925797 12.75124324 1.8596377 10.125 1.8125 C9.37863281 1.78736328 8.63226563 1.76222656 7.86328125 1.73632812 C5.43778172 1.6701236 5.43778172 1.6701236 2 2 C1.01 3.485 1.01 3.485 0 5 C0 3.35 0 1.7 0 0 Z M8 6 C8 7.98 8 9.96 8 12 C10.64 12 13.28 12 16 12 C16.38218767 10.34385343 16.71395102 8.67542976 17 7 C16.01732141 5.79438816 16.01732141 5.79438816 14.15234375 5.90234375 C12.1015625 5.93489583 10.05078125 5.96744792 8 6 Z " fill="#B8C5D0" transform="translate(136,382)"/>
<path d="M0 0 C0.33 0 0.66 0 1 0 C1 1.98 1 3.96 1 6 C-3.95 6 -8.9 6 -14 6 C-14 7.32 -14 8.64 -14 10 C-9.71 10 -5.42 10 -1 10 C-1 12.31 -1 14.62 -1 17 C-5.29 17 -9.58 17 -14 17 C-14 18.65 -14 20.3 -14 22 C-9.05 22 -4.1 22 1 22 C1 22.33 1 22.66 1 23 C-4.28 23 -9.56 23 -15 23 C-15 20.69 -15 18.38 -15 16 C-14.34 15.67 -13.68 15.34 -13 15 C-12.67 14.01 -12.34 13.02 -12 12 C-12.99 11.67 -13.98 11.34 -15 11 C-15 9.02 -15 7.04 -15 5 C-10.05 5 -5.1 5 0 5 C0 3.35 0 1.7 0 0 Z " fill="#ACB9C9" transform="translate(197,344)"/>
<path d="M0 0 C2.64 0 5.28 0 8 0 C8.33 0.99 8.66 1.98 9 3 C9.94875 3.144375 10.8975 3.28875 11.875 3.4375 C15 4 15 4 17 5 C16.34 5.66 15.68 6.32 15 7 C15.32041397 9.60280568 15.32041397 9.60280568 16 12 C7.42857143 11 7.42857143 11 4 10 C4 9.34 4 8.68 4 8 C3.34 8 2.68 8 2 8 C0.23537317 4.91190305 0 3.76687864 0 0 Z " fill="#C6D0DD" transform="translate(367,401)"/>
<path d="M0 0 C2.64 0 5.28 0 8 0 C8 9.57 8 19.14 8 29 C6.35 29 4.7 29 3 29 C4.32 28.67 5.64 28.34 7 28 C6.67 22.72 6.34 17.44 6 12 C4.68 12.33 3.36 12.66 2 13 C1.34 13 0.68 13 0 13 C0 8.71 0 4.42 0 0 Z " fill="#BDC8D1" transform="translate(218,344)"/>
<path d="M0 0 C1.984375 1.546875 1.984375 1.546875 4 4 C4.390625 7.453125 4.390625 7.453125 4.25 11.25 C4.21390625 12.51328125 4.1778125 13.7765625 4.140625 15.078125 C4.07101563 16.52445312 4.07101563 16.52445312 4 18 C3.01 18 2.02 18 1 18 C0.67 18.99 0.34 19.98 0 21 C-0.99 21 -1.98 21 -3 21 C-2.34 19.35 -1.68 17.7 -1 16 C-1.99 16.33 -2.98 16.66 -4 17 C-3.67373505 10.67721029 -3.38495108 5.44535609 0 0 Z " fill="#E0E7EE" transform="translate(187,385)"/>
<path d="M0 0 C2.31 0 4.62 0 7 0 C6.91308261 2.77236494 6.80622639 5.54147078 6.6875 8.3125 C6.66494141 9.09818359 6.64238281 9.88386719 6.61914062 10.69335938 C6.58369141 11.45068359 6.54824219 12.20800781 6.51171875 12.98828125 C6.48553467 13.68477783 6.45935059 14.38127441 6.43237305 15.09887695 C5.87343659 17.55649307 4.99661107 18.49334039 3 20 C2.01 20 1.02 20 0 20 C0 13.4 0 6.8 0 0 Z " fill="#F7FCFD" transform="translate(195,382)"/>
<path d="M0 0 C2.125 1.1875 2.125 1.1875 4.125 4.1875 C4.125 5.5075 4.125 6.8275 4.125 8.1875 C-2.35792295 8.5544579 -2.35792295 8.5544579 -4.8125 6.8125 C-5.875 5.1875 -5.875 5.1875 -5.875 3.1875 C-7.525 3.1875 -9.175 3.1875 -10.875 3.1875 C-11.205 3.8475 -11.535 4.5075 -11.875 5.1875 C-12.535 5.1875 -13.195 5.1875 -13.875 5.1875 C-13.5 2.75 -13.5 2.75 -12.875 0.1875 C-8.89385272 -1.80307364 -4.16169146 -1.17613019 0 0 Z " fill="#FAFDFD" transform="translate(341.875,344.8125)"/>
<path d="M0 0 C0 5.28 0 10.56 0 16 C-1.65 16 -3.3 16 -5 16 C-4.67 15.34 -4.34 14.68 -4 14 C-4.29299023 12.32577014 -4.62690101 10.65821773 -5 9 C-5 8.34 -5 7.68 -5 7 C-7.31 6.67 -9.62 6.34 -12 6 C-11.67 4.35 -11.34 2.7 -11 1 C-9.35422741 0.83273455 -7.70838013 0.66620388 -6.0625 0.5 C-4.68771484 0.36078125 -4.68771484 0.36078125 -3.28515625 0.21875 C-1 0 -1 0 0 0 Z " fill="#F9FDFD" transform="translate(171,356)"/>
<path d="M0 0 C0 1.98 0 3.96 0 6 C-1.65 6.33 -3.3 6.66 -5 7 C-5 9.31 -5 11.62 -5 14 C-6.98 14.99 -6.98 14.99 -9 16 C-8.67 14.35 -8.34 12.7 -8 11 C-8.99 11 -9.98 11 -11 11 C-11.25 4.375 -11.25 4.375 -9 1 C-5.8035914 -0.06546953 -3.34252724 -0.07427838 0 0 Z " fill="#B9C6D3" transform="translate(375,344)"/>
<path d="M0 0 C1.51168874 0.02808341 3.02340404 0.05476834 4.53514099 0.0801239 C8.48590018 0.1500998 12.43601373 0.23888886 16.3862915 0.33178711 C20.42853164 0.42345481 24.47109773 0.49706887 28.51367188 0.57226562 C36.424905 0.72205416 44.33554725 0.89174686 52.24609375 1.07421875 C52.24609375 1.40421875 52.24609375 1.73421875 52.24609375 2.07421875 C51.46126617 2.08452621 50.6764386 2.09483368 49.86782837 2.10545349 C42.48087047 2.20332652 35.09399829 2.30582628 27.70717812 2.41355801 C23.90930733 2.46878319 20.11142885 2.52220253 16.31347656 2.5715332 C12.65002008 2.61918276 8.98665829 2.67152575 5.32331467 2.7271595 C3.92386602 2.74758038 2.5243914 2.76629392 1.124897 2.78329277 C-0.83134639 2.80734236 -2.78750574 2.83795997 -4.74365234 2.86889648 C-6.41577286 2.89221291 -6.41577286 2.89221291 -8.12167358 2.91600037 C-10.73281454 2.9000302 -10.73281454 2.9000302 -12.75390625 4.07421875 C-14.7944563 4.14487492 -16.83724882 4.15843851 -18.87890625 4.13671875 C-19.97460938 4.12769531 -21.0703125 4.11867188 -22.19921875 4.109375 C-23.46378906 4.09197266 -23.46378906 4.09197266 -24.75390625 4.07421875 C-24.75390625 3.74421875 -24.75390625 3.41421875 -24.75390625 3.07421875 C-16.53045838 -0.42384488 -8.76466289 -0.22923485 0 0 Z " fill="#AC8B3C" transform="translate(195.75390625,422.92578125)"/>
<path d="M0 0 C5.94 0 11.88 0 18 0 C17.67 1.65 17.34 3.3 17 5 C16.01 4.67 15.02 4.34 14 4 C12.27204648 3.93197033 10.54164635 3.91504355 8.8125 3.9375 C7.91144531 3.94652344 7.01039063 3.95554687 6.08203125 3.96484375 C5.05142578 3.98224609 5.05142578 3.98224609 4 4 C3.67 5.32 3.34 6.64 3 8 C1.68 8.33 0.36 8.66 -1 9 C-2.16552619 4.80410573 -2.08954032 4.17908064 0 0 Z " fill="#FAFDFD" transform="translate(138,383)"/>
<path d="M0 0 C1.93930548 0.61937508 3.87639013 1.24570688 5.8125 1.875 C7.43091797 2.39707031 7.43091797 2.39707031 9.08203125 2.9296875 C12 4 12 4 15 6 C15 6.66 15 7.32 15 8 C9.21839045 9.00549731 4.78666496 8.74666645 -1 8 C-1.92091738 5.42143135 -2.18506902 4.4056713 -1.0234375 1.859375 C-0.68570312 1.24578125 -0.34796875 0.6321875 0 0 Z " fill="#CFD9E0" transform="translate(376,391)"/>
<path d="M0 0 C2.64680904 0.11339204 5.29177518 0.24012873 7.9375 0.375 C9.06961914 0.42140625 9.06961914 0.42140625 10.22460938 0.46875 C12.15507395 0.5726315 14.07942081 0.77895614 16 1 C16.33 1.66 16.66 2.32 17 3 C15.83984375 5 15.83984375 5 14 7 C9.01025041 7.60943506 4.3125685 7.00732001 0.3125 3.9375 C-0.120625 3.298125 -0.55375 2.65875 -1 2 C-0.67 1.34 -0.34 0.68 0 0 Z " fill="#DEE4E9" transform="translate(326,355)"/>
<path d="M0 0 C2.31 0 4.62 0 7 0 C7.66 1.32 8.32 2.64 9 4 C8.01 4 7.02 4 6 4 C6 3.34 6 2.68 6 2 C5.34 2 4.68 2 4 2 C4.56591298 4.01302989 4.56591298 4.01302989 6 6 C8.85781443 7.13848908 8.85781443 7.13848908 12.125 7.75 C13.22070312 7.99234375 14.31640625 8.2346875 15.4453125 8.484375 C16.70988281 8.73960937 16.70988281 8.73960937 18 9 C18 9.66 18 10.32 18 11 C11.94721776 11.32297455 7.21976273 11.52333984 2 8 C-0.1519437 4.77208445 -0.20086443 3.71599191 0 0 Z " fill="#BAC4CD" transform="translate(322,363)"/>
<path d="M0 0 C3.96 0 7.92 0 12 0 C12 1.98 12 3.96 12 6 C7.38 6 2.76 6 -2 6 C-2.33 7.32 -2.66 8.64 -3 10 C-3 8.35 -3 6.7 -3 5 C-1.02 4.34 0.96 3.68 3 3 C2.01 2.01 1.02 1.02 0 0 Z " fill="#CBD8E3" transform="translate(268,393)"/>
<path d="M0 0 C1.65 0 3.3 0 5 0 C6.03159626 3.09478879 5.97482862 4.52631393 5.5625 7.6875 C5.46066406 8.49574219 5.35882813 9.30398438 5.25390625 10.13671875 C5.17011719 10.75160156 5.08632813 11.36648438 5 12 C4.01 11.67 3.02 11.34 2 11 C1.67 11.99 1.34 12.98 1 14 C0.01 13.34 -0.98 12.68 -2 12 C-1.67 11.34 -1.34 10.68 -1 10 C-0.77377919 8.29636178 -0.59111527 6.58671299 -0.4375 4.875 C-0.35371094 3.96492188 -0.26992188 3.05484375 -0.18359375 2.1171875 C-0.12300781 1.41851562 -0.06242187 0.71984375 0 0 Z " fill="#F0F8FB" transform="translate(378,356)"/>
<path d="M0 0 C1.98 0.66 3.96 1.32 6 2 C6 5.63 6 9.26 6 13 C3.03 12.505 3.03 12.505 0 12 C0 8.04 0 4.08 0 0 Z " fill="#F2F6F8" transform="translate(282,360)"/>
<path d="M0 0 C2.47923801 -0.02685095 4.9581884 -0.04676547 7.4375 -0.0625 C8.14455078 -0.07087891 8.85160156 -0.07925781 9.58007812 -0.08789062 C11.38693559 -0.09653588 13.19387603 -0.05220011 15 0 C16 1 16 1 16 7 C8.08 7 0.16 7 -8 7 C-8 6.67 -8 6.34 -8 6 C-0.41 6 7.18 6 15 6 C14.67 5.01 14.34 4.02 14 3 C13.11248047 3.01740234 13.11248047 3.01740234 12.20703125 3.03515625 C7.99768215 3.08322386 4.1077667 3.06006883 0 2 C0 1.34 0 0.68 0 0 Z " fill="#98ABC4" transform="translate(266,404)"/>
<path d="M0 0 C2.64 0.33 5.28 0.66 8 1 C8.33 3.31 8.66 5.62 9 8 C6.69 8 4.38 8 2 8 C0.23537317 4.91190305 0 3.76687864 0 0 Z " fill="#D3DCE5" transform="translate(382,384)"/>
<path d="M0 0 C8.25 0 16.5 0 25 0 C25 0.33 25 0.66 25 1 C17.08 1 9.16 1 1 1 C0.67 2.65 0.34 4.3 0 6 C-0.33333333 7.66666667 -0.66666667 9.33333333 -1 11 C-4 9 -4 9 -4.8125 7.0625 C-5 5 -5 5 -3 2 C-2.34 2.66 -1.68 3.32 -1 4 C-0.67 2.68 -0.34 1.36 0 0 Z " fill="#BBCEE3" transform="translate(311,382)"/>
<path d="M0 0 C1.98 0 3.96 0 6 0 C5.67 1.65 5.34 3.3 5 5 C4.34 5 3.68 5 3 5 C2.67 5.66 2.34 6.32 2 7 C1.01 7.33 0.02 7.66 -1 8 C-1.66 7.67 -2.32 7.34 -3 7 C-1.125 2.25 -1.125 2.25 0 0 Z " fill="#EFF5F6" transform="translate(185,411)"/>
<path d="M0 0 C3 1 3 1 5 4 C5 5.32 5 6.64 5 8 C1.6875 8.25 1.6875 8.25 -2 8 C-3.9375 6 -3.9375 6 -5 4 C-3.68 4 -2.36 4 -1 4 C-0.67 2.68 -0.34 1.36 0 0 Z " fill="#C7D2E2" transform="translate(341,345)"/>
<path d="M0 0 C0.33 0 0.66 0 1 0 C1 9.9 1 19.8 1 30 C-0.98 30 -2.96 30 -5 30 C-5 29.34 -5 28.68 -5 28 C-4.01 27.67 -3.02 27.34 -2 27 C-0.68638302 24.37276604 -0.78746091 22.27389439 -0.68359375 19.3359375 C-0.64169922 18.21445312 -0.59980469 17.09296875 -0.55664062 15.9375 C-0.51732422 14.761875 -0.47800781 13.58625 -0.4375 12.375 C-0.37272461 10.59996094 -0.37272461 10.59996094 -0.30664062 8.7890625 C-0.20032574 5.85949672 -0.09829358 2.92984412 0 0 Z " fill="#8092A6" transform="translate(329,288)"/>
<path d="M0 0 C0.66 0.33 1.32 0.66 2 1 C2.4140625 3.06640625 2.4140625 3.06640625 2.625 5.5625 C2.69976562 6.38878906 2.77453125 7.21507812 2.8515625 8.06640625 C2.90054687 8.70449219 2.94953125 9.34257812 3 10 C1.02 10.99 1.02 10.99 -1 12 C-0.67 10.35 -0.34 8.7 0 7 C-0.99 7 -1.98 7 -3 7 C-3 5.02 -3 3.04 -3 1 C-2.01 0.67 -1.02 0.34 0 0 Z " fill="#F7FCFC" transform="translate(367,348)"/>
<path d="M0 0 C1.8587516 3.1241325 2.20151847 5.09317534 1.75 8.6875 C1.61851562 9.86892578 1.61851562 9.86892578 1.484375 11.07421875 C1.24460938 12.02748047 1.24460938 12.02748047 1 13 C0.01 13.495 0.01 13.495 -1 14 C-1.46523063 15.89533342 -1.46523063 15.89533342 -1.625 18.0625 C-1.74875 19.361875 -1.8725 20.66125 -2 22 C-2.33 22 -2.66 22 -3 22 C-3.20227805 15.62824127 -2.61229124 10.15495124 -1 4 C-0.66612491 2.66680222 -0.33262819 1.33350942 0 0 Z " fill="#B3C2D2" transform="translate(246,97)"/>
<path d="M0 0 C1.05960937 -0.00257812 2.11921875 -0.00515625 3.2109375 -0.0078125 C4.86996094 0.00378906 4.86996094 0.00378906 6.5625 0.015625 C7.66851562 0.00789063 8.77453125 0.00015625 9.9140625 -0.0078125 C11.50347656 -0.00394531 11.50347656 -0.00394531 13.125 0 C14.09566406 0.00225586 15.06632812 0.00451172 16.06640625 0.00683594 C18.5625 0.265625 18.5625 0.265625 21.5625 2.265625 C19.9125 2.595625 18.2625 2.925625 16.5625 3.265625 C16.5625 2.605625 16.5625 1.945625 16.5625 1.265625 C4.1875 1.760625 4.1875 1.760625 -8.4375 2.265625 C-5.0803713 0.0275392 -3.92612636 0.00912446 0 0 Z " fill="#9CAFC1" transform="translate(279.4375,73.734375)"/>
<path d="M0 0 C0.99 0 1.98 0 3 0 C3.33 2.64 3.66 5.28 4 8 C2.35 8 0.7 8 -1 8 C-1.04241723 5.66705225 -1.04092937 3.33297433 -1 1 C-0.67 0.67 -0.34 0.34 0 0 Z " fill="#EFF5F8" transform="translate(304,384)"/>
<path d="M0 0 C0.33 1.32 0.66 2.64 1 4 C0.34 4 -0.32 4 -1 4 C-1 4.99 -1 5.98 -1 7 C-4.3 7 -7.6 7 -11 7 C-11.33 8.32 -11.66 9.64 -12 11 C-12 9.35 -12 7.7 -12 6 C-9.36 5.67 -6.72 5.34 -4 5 C-4 4.01 -4 3.02 -4 2 C-2.68 2.33 -1.36 2.66 0 3 C0 2.01 0 1.02 0 0 Z " fill="#8DA0B0" transform="translate(171,350)"/>
<path d="M0 0 C6.0546875 -0.1953125 6.0546875 -0.1953125 8 0 C10 2 10 2 10 6 C10.66 6 11.32 6 12 6 C11.67 6.66 11.34 7.32 11 8 C9.68 7.67 8.36 7.34 7 7 C7 6.01 7 5.02 7 4 C4.64046906 1.64046906 3.22104383 1.50858587 0 1 C0 0.67 0 0.34 0 0 Z " fill="#C8D4E1" transform="translate(201,344)"/>
<path d="M0 0 C1.32 0.33 2.64 0.66 4 1 C1.69 3.97 -0.62 6.94 -3 10 C-4 6 -4 6 -3.0625 3.75 C-2.711875 3.1725 -2.36125 2.595 -2 2 C-1.34 2 -0.68 2 0 2 C0 1.34 0 0.68 0 0 Z " fill="#BEC9D7" transform="translate(296,345)"/>
<path d="M0 0 C0.66 0.33 1.32 0.66 2 1 C2.85792053 3.97855507 3.15681685 6.90692285 3 10 C1.0625 12.5625 1.0625 12.5625 -1 14 C-1 12.68 -1 11.36 -1 10 C-0.34 10 0.32 10 1 10 C0.835 8.72125 0.67 7.4425 0.5 6.125 C0.23273927 4.05372935 0 2.08896425 0 0 Z " fill="#94A9B8" transform="translate(344,358)"/>
<path d="M0 0 C0.33 0 0.66 0 1 0 C1 1.98 1 3.96 1 6 C-2.00313748 7.50156874 -4.79067522 7.09281204 -8.125 7.0625 C-9.40632812 7.05347656 -10.68765625 7.04445313 -12.0078125 7.03515625 C-13.48894531 7.01775391 -13.48894531 7.01775391 -15 7 C-15 6.34 -15 5.68 -15 5 C-14.08476562 4.97421875 -13.16953125 4.9484375 -12.2265625 4.921875 C-11.03804687 4.86515625 -9.84953125 4.8084375 -8.625 4.75 C-7.44164062 4.70359375 -6.25828125 4.6571875 -5.0390625 4.609375 C-1.88708247 4.34351201 -1.88708247 4.34351201 -0.5859375 1.953125 C-0.39257812 1.30859375 -0.19921875 0.6640625 0 0 Z " fill="#8DABBE" transform="translate(261,344)"/>
<path d="M0 0 C0.33 0 0.66 0 1 0 C1.32644414 4.16216275 1.40650982 6.36313462 -0.875 9.9375 C-3 12 -3 12 -5 12 C-4.58225916 9.57710315 -4.30387062 8.29120935 -2.5 6.5625 C-0.53426922 4.51486377 -0.37331439 2.76252651 0 0 Z " fill="#A7B5C5" transform="translate(391,399)"/>
<path d="M0 0 C2.97 0 5.94 0 9 0 C8.67 0.66 8.34 1.32 8 2 C5.69 1.67 3.38 1.34 1 1 C1 2.65 1 4.3 1 6 C0.34 6 -0.32 6 -1 6 C-0.67 7.32 -0.34 8.64 0 10 C-0.99 10.33 -1.98 10.66 -3 11 C-2.690625 9.9275 -2.38125 8.855 -2.0625 7.75 C-1.33376508 5.17799441 -0.64835844 2.59343376 0 0 Z " fill="#ABB9CB" transform="translate(115,382)"/>
<path d="M0 0 C0.89203125 0.19464844 1.7840625 0.38929687 2.703125 0.58984375 C3.37859375 0.74582031 4.0540625 0.90179688 4.75 1.0625 C4.75 1.3925 4.75 1.7225 4.75 2.0625 C-0.2 2.3925 -5.15 2.7225 -10.25 3.0625 C-9.92 2.0725 -9.59 1.0825 -9.25 0.0625 C-5.99391784 -1.33820201 -3.37971675 -0.75598927 0 0 Z " fill="#CAD9E4" transform="translate(288.25,98.9375)"/>
<path d="M0 0 C4.28324091 2.51407619 6.64531705 4.12314139 8 9 C6.02 8.01 4.04 7.02 2 6 C2 5.34 2 4.68 2 4 C1.34 4 0.68 4 0 4 C0 2.68 0 1.36 0 0 Z " fill="#AAB9CF" transform="translate(313,81)"/>
<path d="M0 0 C0.33 0.99 0.66 1.98 1 3 C-0.32 3.99 -1.64 4.98 -3 6 C-4.32 5.01 -5.64 4.02 -7 3 C-6.34 3 -5.68 3 -5 3 C-5 2.34 -5 1.68 -5 1 C-3 0 -3 0 0 0 Z " fill="#DCE2EB" transform="translate(307,401)"/>
<path d="M0 0 C0 0.66 0 1.32 0 2 C-3.3 2 -6.6 2 -10 2 C-10 1.34 -10 0.68 -10 0 C-6.7169902 -1.6415049 -3.57454967 -0.51888624 0 0 Z " fill="#B1C1CB" transform="translate(340,372)"/>
<path d="M0 0 C2.64 0 5.28 0 8 0 C7.401875 0.20625 6.80375 0.4125 6.1875 0.625 C3.18981233 2.50926082 2.38638224 4.81132084 1 8 C0.67 8 0.34 8 0 8 C0 5.36 0 2.72 0 0 Z " fill="#B6C5D6" transform="translate(218,344)"/>
<path d="M0 0 C2.31 0 4.62 0 7 0 C6.38125 0.7425 5.7625 1.485 5.125 2.25 C2.80329196 5.07171298 2.80329196 5.07171298 1 9 C0.67 6.03 0.34 3.06 0 0 Z " fill="#D3E1EA" transform="translate(106,344)"/>
<path d="M0 0 C2.31 0 4.62 0 7 0 C7.66 1.32 8.32 2.64 9 4 C8.01 4 7.02 4 6 4 C6 3.34 6 2.68 6 2 C4.35 2.66 2.7 3.32 1 4 C0.67 2.68 0.34 1.36 0 0 Z " fill="#96AAC1" transform="translate(322,363)"/>
<path d="M0 0 C-0.33 1.32 -0.66 2.64 -1 4 C-1.66 4 -2.32 4 -3 4 C-3 4.66 -3 5.32 -3 6 C-4.65 6.66 -6.3 7.32 -8 8 C-3.45945946 0 -3.45945946 0 0 0 Z " fill="#A8B8CC" transform="translate(190,403)"/>
<path d="M0 0 C3.96 0 7.92 0 12 0 C12.33 0.66 12.66 1.32 13 2 C12.31292969 1.98839844 11.62585938 1.97679687 10.91796875 1.96484375 C10.01691406 1.95582031 9.11585938 1.94679688 8.1875 1.9375 C7.29417969 1.92589844 6.40085937 1.91429687 5.48046875 1.90234375 C2.86586209 1.88990033 2.86586209 1.88990033 0 3 C0 2.01 0 1.02 0 0 Z " fill="#ABBCC9" transform="translate(328,343)"/>
<path d="M0 0 C0.33 1.32 0.66 2.64 1 4 C0.34 4 -0.32 4 -1 4 C-1.33 4.99 -1.66 5.98 -2 7 C-2.99 7 -3.98 7 -5 7 C-4.34 5.35 -3.68 3.7 -3 2 C-2.01 2 -1.02 2 0 2 C0 1.34 0 0.68 0 0 Z " fill="#FAFDF8" transform="translate(189,399)"/>
<path d="M0 0 C0.99 0.33 1.98 0.66 3 1 C2.67 2.65 2.34 4.3 2 6 C0.68 5.34 -0.64 4.68 -2 4 C-1.34 2.68 -0.68 1.36 0 0 Z " fill="#ECEDF4" transform="translate(340,367)"/>
<path d="M0 0 C0.33 0 0.66 0 1 0 C1 1.98 1 3.96 1 6 C1.99 6 2.98 6 4 6 C3.67 7.98 3.34 9.96 3 12 C1 11 1 11 0.375 9.375 C-0.12095645 6.2339425 -0.06103811 3.17398169 0 0 Z " fill="#8291A7" transform="translate(363,349)"/>
<path d="M0 0 C0.99 0.33 1.98 0.66 3 1 C0.525 4.465 0.525 4.465 -2 8 C-2.33 7.34 -2.66 6.68 -3 6 C-2.06553465 3.96855359 -1.06775224 1.96466413 0 0 Z " fill="#C2CDDC" transform="translate(325,345)"/>
<path d="M0 0 C3.125 0.375 3.125 0.375 6 1 C2.96474514 3.02350324 1.80573798 3.32124018 -1.6875 3.625 C-2.49574219 3.69976562 -3.30398438 3.77453125 -4.13671875 3.8515625 C-4.75160156 3.90054687 -5.36648438 3.94953125 -6 4 C-5.38125 3.71125 -4.7625 3.4225 -4.125 3.125 C-1.86674235 2.06279958 -1.86674235 2.06279958 0 0 Z " fill="#94AEB9" transform="translate(298,314)"/>
<path d="M0 0 C0.66 0 1.32 0 2 0 C2 0.66 2 1.32 2 2 C2.66 2 3.32 2 4 2 C4.33 3.32 4.66 4.64 5 6 C2.525 5.01 2.525 5.01 0 4 C0 2.66666667 0 1.33333333 0 0 Z " fill="#BCC4D0" transform="translate(155,382)"/>
<path d="M0 0 C0.33 0 0.66 0 1 0 C1.0825 1.11375 1.165 2.2275 1.25 3.375 C1.57873787 7.05753944 1.57873787 7.05753944 4.0625 8.4375 C4.701875 8.623125 5.34125 8.80875 6 9 C3.69 9 1.38 9 -1 9 C-0.67 6.03 -0.34 3.06 0 0 Z " fill="#DAE6F5" transform="translate(223,402)"/>
<path d="M0 0 C2.31 0 4.62 0 7 0 C6.67 1.65 6.34 3.3 6 5 C5.34 3.68 4.68 2.36 4 1 C2.68 1.33 1.36 1.66 0 2 C0 1.34 0 0.68 0 0 Z " fill="#A3B7C9" transform="translate(303,400)"/>
<path d="M0 0 C1.32 0 2.64 0 4 0 C4 1.32 4 2.64 4 4 C4.66 4 5.32 4 6 4 C5.67 4.99 5.34 5.98 5 7 C2.65941363 4.87219421 1.29299694 2.88437779 0 0 Z " fill="#93A0B0" transform="translate(125,358)"/>
<path d="M0 0 C2.31 0.66 4.62 1.32 7 2 C7 2.99 7 3.98 7 5 C4.0625 4.1875 4.0625 4.1875 1 3 C0.67 2.01 0.34 1.02 0 0 Z " fill="#C3D1DC" transform="translate(256,309)"/>
<path d="M0 0 C1.60379341 -0.05416188 3.20811406 -0.09286638 4.8125 -0.125 C5.70582031 -0.14820312 6.59914063 -0.17140625 7.51953125 -0.1953125 C10 0 10 0 13 2 C11.35 2.33 9.7 2.66 8 3 C8 2.34 8 1.68 8 1 C5.36 1 2.72 1 0 1 C0 0.67 0 0.34 0 0 Z " fill="#ABB7CC" transform="translate(288,74)"/>
</svg>
