<?xml version="1.0" standalone="no"?>
<!DOCTYPE svg PUBLIC "-//W3C//DTD SVG 20010904//EN"
 "http://www.w3.org/TR/2001/REC-SVG-20010904/DTD/svg10.dtd">
<svg version="1.0" xmlns="http://www.w3.org/2000/svg"
 width="557.000000pt" height="652.000000pt" viewBox="0 0 557.000000 652.000000"
 preserveAspectRatio="xMidYMid meet">

<g transform="translate(0.000000,652.000000) scale(0.100000,-0.100000)"
fill="#000000" stroke="none">
<path d="M3182 5910 c-79 -15 -172 -48 -224 -82 -108 -68 -197 -196 -232 -333
-35 -138 -37 -228 -34 -1500 4 -1244 4 -1250 25 -1331 28 -105 61 -177 109
-240 71 -93 138 -139 254 -176 65 -20 96 -23 225 -23 138 0 157 2 237 29 100
32 177 82 225 144 18 23 36 43 40 44 4 1 33 -43 63 -98 51 -91 58 -99 88 -102
l32 -3 0 980 0 981 -460 0 -460 0 0 498 c0 273 5 537 10 585 12 121 45 181
120 220 47 24 65 27 144 27 74 0 100 -4 141 -24 60 -28 77 -46 107 -111 22
-48 23 -62 26 -357 l3 -308 170 0 171 0 -5 348 c-3 294 -6 357 -22 412 -60
220 -182 353 -370 405 -71 19 -305 28 -383 15z m448 -2543 c0 -299 -4 -495
-11 -532 -29 -160 -121 -238 -279 -238 -90 0 -140 21 -194 85 -69 80 -69 84
-74 651 l-3 507 280 0 281 0 0 -473z"/>
<path d="M1595 5868 c-3 -7 -4 -821 -3 -1808 l3 -1795 188 -3 187 -2 0 790 0
790 275 0 275 0 0 180 0 180 -275 0 -275 0 0 645 0 645 268 0 268 0 102 190
c56 105 102 192 102 195 0 3 -250 5 -555 5 -435 0 -557 -3 -560 -12z"/>
<path d="M1315 1816 c-16 -8 -42 -26 -57 -42 -89 -95 -74 -283 28 -360 33 -25
46 -29 105 -29 54 0 73 4 98 23 31 22 31 22 31 2 0 -18 5 -21 38 -18 l37 3 3
113 3 112 -96 0 -95 0 0 -35 0 -35 50 0 c28 0 50 -2 50 -5 0 -17 -33 -66 -49
-75 -11 -5 -37 -10 -59 -10 -72 0 -120 76 -109 173 8 62 29 95 74 113 48 20
88 10 121 -32 22 -28 34 -34 65 -34 31 0 37 3 37 21 0 37 -39 87 -84 108 -49
24 -144 28 -191 7z"/>
<path d="M3550 1819 c-159 -63 -157 -368 3 -428 44 -17 137 -13 183 8 73 33
109 110 102 220 -7 139 -77 212 -202 210 -34 0 -72 -5 -86 -10z m153 -89 c64
-50 61 -208 -4 -254 -33 -23 -100 -21 -132 4 -61 48 -60 190 0 246 34 31 99
33 136 4z"/>
<path d="M3984 1820 c-41 -16 -74 -68 -74 -115 0 -77 33 -102 186 -144 51 -14
68 -33 60 -65 -11 -46 -104 -57 -148 -18 -10 8 -18 21 -18 29 0 9 -14 13 -46
13 l-46 0 6 -32 c14 -69 80 -108 181 -108 97 1 165 53 165 129 0 75 -37 108
-152 136 -38 10 -78 25 -90 35 -20 15 -21 21 -10 44 10 23 17 26 67 26 52 0
57 -2 73 -30 15 -27 22 -30 57 -28 36 3 40 5 37 28 -5 36 -33 72 -73 92 -36
19 -137 24 -175 8z"/>
<path d="M620 1605 l0 -215 45 0 45 0 0 215 0 215 -45 0 -45 0 0 -215z"/>
<path d="M780 1604 l0 -215 43 3 42 3 5 133 5 133 85 -136 85 -135 43 0 42 0
0 215 0 215 -45 0 -44 0 -3 -127 -3 -128 -78 128 -79 127 -49 0 -49 0 0 -216z"/>
<path d="M1670 1605 l0 -215 163 2 162 3 3 38 3 37 -120 0 -121 0 0 55 0 55
106 0 105 0 -3 38 -3 37 -102 3 -103 3 0 39 0 39 113 3 112 3 3 38 3 37 -160
0 -161 0 0 -215z"/>
<path d="M2052 1608 l3 -213 42 -3 42 -3 3 138 3 138 86 -135 85 -135 42 -3
42 -3 0 215 0 216 -45 0 -44 0 -3 -125 -3 -126 -76 123 -75 123 -52 3 -52 3 2
-213z"/>
<path d="M2472 1608 l3 -213 48 -3 47 -3 0 215 0 216 -50 0 -50 0 2 -212z"/>
<path d="M2640 1605 l0 -215 163 2 162 3 3 38 3 37 -120 0 -121 0 0 55 0 55
106 0 105 0 -3 38 -3 37 -102 3 -103 3 0 39 0 39 113 3 112 3 3 38 3 37 -160
0 -161 0 0 -215z"/>
<path d="M3022 1608 l3 -213 43 -3 42 -3 0 85 0 86 64 0 c86 0 96 -11 96 -101
l0 -69 45 0 45 0 0 85 c0 69 -3 88 -18 103 -18 18 -18 20 5 46 27 32 31 92 8
135 -25 49 -68 61 -209 61 l-126 0 2 -212z m246 120 c7 -7 12 -27 12 -45 0
-41 -25 -53 -111 -53 l-59 0 0 55 0 55 73 0 c43 0 78 -5 85 -12z"/>
<path d="M4603 1809 c-48 -14 -83 -62 -83 -113 0 -27 6 -49 18 -61 17 -18 16
-21 -6 -64 -48 -95 18 -191 131 -191 104 0 147 51 147 178 l0 82 -40 0 -40 0
0 -75 c0 -62 -4 -79 -20 -95 -39 -39 -110 -11 -110 43 0 32 13 47 46 56 23 6
30 14 32 39 3 28 0 32 -22 32 -69 0 -75 90 -6 105 26 6 30 11 30 41 0 38 -13
41 -77 23z"/>
<path d="M1645 1250 c-98 -14 -154 -83 -163 -201 -6 -94 11 -150 60 -194 21
-20 52 -38 68 -41 24 -5 30 -12 35 -45 16 -95 124 -136 199 -76 26 21 59 94
49 109 -2 5 -20 8 -39 8 -30 0 -37 -4 -45 -30 -8 -21 -18 -30 -33 -30 -45 0
-64 53 -23 65 68 21 124 98 134 184 10 86 -38 199 -98 232 -30 16 -101 25
-144 19z m96 -90 c47 -25 69 -147 40 -218 -27 -66 -117 -83 -173 -33 -27 24
-32 36 -36 88 -8 110 32 173 110 173 22 0 48 -5 59 -10z"/>
<path d="M3471 1248 c-51 -9 -105 -47 -127 -89 -41 -80 -36 -210 12 -282 47
-71 154 -97 241 -58 44 20 62 42 88 104 l15 37 -50 0 c-36 0 -50 -4 -50 -14 0
-7 -12 -25 -26 -40 -46 -45 -119 -30 -148 30 -32 69 -14 198 32 223 37 20 91
13 117 -14 14 -13 25 -29 25 -35 0 -5 22 -10 49 -10 l50 0 -9 29 c-26 91 -112
138 -219 119z"/>
<path d="M4285 1250 c-57 -8 -107 -42 -135 -92 -22 -37 -25 -56 -25 -133 0
-108 18 -154 78 -193 36 -24 51 -27 121 -27 101 0 143 22 178 93 32 65 32 188
0 248 -19 37 -73 93 -90 94 -4 1 -25 4 -47 8 -22 4 -58 5 -80 2z m96 -90 c30
-17 52 -70 53 -130 2 -98 -38 -150 -116 -150 -66 0 -108 57 -108 145 0 56 20
107 51 129 26 18 90 21 120 6z"/>
<path d="M4710 1248 c-59 -10 -92 -36 -108 -85 -10 -32 -10 -46 0 -78 16 -47
48 -68 138 -91 107 -26 135 -58 90 -99 -41 -37 -150 -14 -150 32 0 9 -14 13
-45 13 -39 0 -45 -3 -45 -20 0 -35 29 -79 62 -96 42 -22 145 -30 190 -15 19 6
48 25 64 42 24 25 29 39 29 78 0 83 -19 98 -179 148 -65 20 -88 42 -70 70 27
42 120 36 142 -10 11 -23 20 -27 53 -27 33 0 39 3 39 20 0 82 -100 137 -210
118z"/>
<path d="M683 1038 c-40 -112 -73 -209 -73 -216 0 -8 16 -12 44 -12 43 0 45 1
58 43 l15 42 79 3 80 3 12 -46 c12 -45 12 -45 56 -45 25 0 47 3 49 8 2 4 -29
99 -69 212 l-72 205 -53 3 -54 3 -72 -203z m147 26 c11 -36 20 -70 20 -75 0
-5 -20 -9 -45 -9 -25 0 -45 3 -45 6 0 11 42 144 46 144 2 0 12 -30 24 -66z"/>
<path d="M1070 1026 l0 -216 45 0 45 0 0 85 0 85 64 0 c82 0 96 -16 96 -108
l0 -63 43 3 42 3 0 81 c0 68 -3 86 -20 104 -18 20 -18 22 -3 31 23 13 41 74
34 113 -3 18 -20 46 -37 62 -30 29 -31 29 -170 32 l-139 4 0 -216z m248 122
c17 -17 15 -63 -3 -78 -8 -7 -47 -15 -85 -18 l-70 -5 0 57 0 56 73 0 c43 0 78
-5 85 -12z"/>
<path d="M1952 1073 c4 -199 12 -223 85 -255 58 -26 161 -21 202 9 53 39 61
73 61 251 l0 162 -44 0 -45 0 -3 -159 c-4 -186 -10 -201 -84 -201 -68 0 -74
15 -74 202 l0 158 -51 0 -51 0 4 -167z"/>
<path d="M2372 1028 l3 -213 45 0 45 0 3 213 2 212 -50 0 -50 0 2 -212z"/>
<path d="M2530 1200 l0 -40 60 0 60 0 2 -172 3 -173 45 0 45 0 3 172 2 172 63
3 62 3 3 38 3 37 -175 0 -176 0 0 -40z"/>
<path d="M2940 1025 l0 -215 160 0 160 0 0 40 0 40 -115 0 -115 0 0 55 0 55
100 0 100 0 0 40 0 40 -100 0 -100 0 0 40 0 40 110 0 110 0 0 40 0 40 -155 0
-155 0 0 -215z"/>
<path d="M3732 1203 l3 -38 62 -3 63 -3 2 -172 3 -172 43 -3 42 -3 0 175 0
176 65 0 65 0 0 40 0 40 -176 0 -175 0 3 -37z"/>
</g>
</svg>
