<?xml version="1.0" encoding="UTF-8"?>
<svg version="1.1" xmlns="http://www.w3.org/2000/svg" width="557" height="652">
<path d="M0 0 C13.41242219 10.86101901 19.46206736 27.80575833 21.27520752 44.54000854 C21.95147215 52.11116925 22.13202403 59.60466099 22.09765625 67.203125 C22.09553383 69.00882965 22.09553383 69.00882965 22.09336853 70.85101318 C22.08782463 74.65070203 22.07528295 78.45032932 22.0625 82.25 C22.05747774 84.84505123 22.05291611 87.44010338 22.04882812 90.03515625 C22.03872963 96.35681294 22.01914366 102.67833854 22 109 C10.45 109 -1.1 109 -13 109 C-13.03738281 105.16890625 -13.07476562 101.3378125 -13.11328125 97.390625 C-13.15959811 93.64724275 -13.21079488 89.90395647 -13.26245117 86.16064453 C-13.29554133 83.57509274 -13.32362184 80.98947148 -13.34643555 78.40380859 C-13.380275 74.66994845 -13.43260566 70.93671597 -13.48828125 67.203125 C-13.49467117 66.06200256 -13.5010611 64.92088013 -13.50764465 63.74517822 C-13.67778153 54.2883205 -14.38980842 43.32480688 -21 36 C-29.51113406 29.57716481 -37.57580529 29.23802841 -48 30 C-52.84926884 31.13664391 -56.61091101 32.79368587 -60.375 36.0625 C-64.96971166 44.36832492 -66.59290711 52.11276627 -66.54589844 61.5300293 C-66.55623611 62.62403549 -66.56657379 63.71804169 -66.57722473 64.84519958 C-66.60646332 68.42169294 -66.60814793 71.99761571 -66.609375 75.57421875 C-66.62436937 78.06957567 -66.64109914 80.56492272 -66.65948486 83.06025696 C-66.70302891 89.59826128 -66.72312893 96.13613173 -66.73822021 102.67425537 C-66.75877915 110.53479983 -66.81370759 118.39522139 -66.86116028 126.25563812 C-66.92982594 138.17046355 -66.96139598 150.08486854 -67 162 C-36.64 162 -6.28 162 25 162 C25 227.01 25 292.02 25 359 C18 359 18 359 16.46875 357.671875 C15.98921875 356.72054687 15.98921875 356.72054687 15.5 355.75 C15.11457031 355.03328125 14.72914063 354.3165625 14.33203125 353.578125 C13.89246094 352.72734375 13.45289063 351.8765625 13 351 C11.73697946 348.82876972 10.46587678 346.66222446 9.1875 344.5 C8.12376545 342.6673827 7.06083519 340.83429716 6 339 C3.83801131 341.0847748 1.89260027 343.14009602 0.0625 345.52734375 C-8.56055937 355.86521606 -23.0933408 359.28113878 -35.8671875 360.75 C-53.74304162 362.10699915 -72.19256176 359.78102184 -86.1875 347.8125 C-100.31864506 334.36797798 -105.56079074 316.56574127 -106.2765007 297.43367004 C-106.42542697 290.93318928 -106.40619711 284.43339539 -106.38818359 277.93164062 C-106.39225666 275.44443024 -106.39760264 272.95722167 -106.40411377 270.47001648 C-106.41629953 264.45539975 -106.41461821 258.44093938 -106.40587585 252.42632902 C-106.39906015 247.53175334 -106.39819922 242.63720908 -106.4014473 237.74263 C-106.401907 237.04212451 -106.40236669 236.34161901 -106.40284032 235.61988607 C-106.40379964 234.19617457 -106.40477228 232.77246308 -106.4057581 231.3487516 C-106.41428289 218.04425306 -106.40452381 204.73981685 -106.388357 191.43532854 C-106.37495647 180.0556501 -106.37728538 168.67606351 -106.39111328 157.29638672 C-106.40722082 144.03474657 -106.41345919 130.77316085 -106.40427649 117.51151228 C-106.40332099 116.09346486 -106.40237787 114.67541743 -106.4014473 113.25737 C-106.40098447 112.55992877 -106.40052164 111.86248755 -106.40004479 111.14391175 C-106.39747037 106.26351499 -106.40179221 101.38315318 -106.40888596 96.50276184 C-106.4182501 89.91652749 -106.41144494 83.33043825 -106.39420319 76.7442112 C-106.39026433 74.33895464 -106.39132728 71.9336834 -106.39799118 69.52843285 C-106.45731568 45.9249859 -105.24893387 22.61877741 -87.90625 4.85546875 C-66.52598792 -15.43319545 -23.86387458 -16.81760819 0 0 Z M-67 199 C-67.0873223 216.52928247 -67.0873223 216.52928247 -67.14648438 234.05859375 C-67.16438663 241.21279615 -67.18551823 248.36688286 -67.22631836 255.52099609 C-67.25902116 261.29168589 -67.27687609 267.06225154 -67.28463173 272.83302689 C-67.29015564 275.02974017 -67.30094235 277.22644701 -67.31719017 279.42310715 C-67.33910943 282.51057126 -67.34196086 285.59752864 -67.34057617 288.68505859 C-67.351362 289.58417969 -67.36214783 290.48330078 -67.3732605 291.40966797 C-67.33028138 300.32193195 -65.48859876 309.47821148 -59 316 C-50.97258901 322.04804938 -43.94886253 322.73498021 -34 322 C-26.2075641 320.35119618 -21.36909838 316.54602343 -17 310 C-11.10045071 299.71869792 -12.49647119 287.47077008 -12.609375 276.05078125 C-12.61684567 273.82448334 -12.6225347 271.59817881 -12.62652588 269.37187195 C-12.64171705 263.54388925 -12.68094238 257.71631236 -12.7253418 251.88848877 C-12.7736748 244.87912632 -12.79185954 237.86962735 -12.81515503 230.86014557 C-12.85379743 220.23981578 -12.93049746 209.62037443 -13 199 C-30.82 199 -48.64 199 -67 199 Z " fill="#002A58" transform="translate(375,70)"/>
<path d="M0 0 C36.96 0 73.92 0 112 0 C111.10856776 4.45716118 110.13421257 6.99191899 108.015625 10.89453125 C107.40976562 12.01537109 106.80390625 13.13621094 106.1796875 14.29101562 C105.70354004 15.15980347 105.70354004 15.15980347 105.21777344 16.04614258 C104.26056645 17.79321437 103.31381277 19.54600022 102.3671875 21.29882812 C99.08058463 27.34853488 95.65828682 33.14674108 92 39 C74.51 39 57.02 39 39 39 C39 81.57 39 124.14 39 168 C56.82 168 74.64 168 93 168 C93 180.21 93 192.42 93 205 C75.18 205 57.36 205 39 205 C39 256.81 39 308.62 39 362 C26.13 362 13.26 362 0 362 C0 242.54 0 123.08 0 0 Z " fill="#002A58" transform="translate(159,64)"/>
<path d="M0 0 C144.87 0 289.74 0 439 0 C439 1.98 439 3.96 439 6 C294.13 6 149.26 6 0 6 C0 4.02 0 2.04 0 0 Z " fill="#B9973C" transform="translate(60,588)"/>
<path d="M0 0 C144.87 0 289.74 0 439 0 C439 1.98 439 3.96 439 6 C294.13 6 149.26 6 0 6 C0 4.02 0 2.04 0 0 Z " fill="#B9973C" transform="translate(60,450)"/>
<path d="M0 0 C6.15282902 5.87936996 8.14067167 12.1104485 8.5 20.375 C8.31035857 28.15029869 5.91478828 33.93573539 0.5625 39.5625 C-2.32730545 41.18361037 -4.71622436 41.6945325 -8 42 C-7.67 43.65 -7.34 45.3 -7 47 C-5.35 47 -3.7 47 -2 47 C-1.34 45.35 -0.68 43.7 0 42 C2.97 42 5.94 42 9 42 C8.53629326 46.72980877 8.02063186 50.25025011 5 54 C0.6171637 56.88868756 -2.79364695 57.56796579 -8 57 C-10.75 55.6875 -10.75 55.6875 -13 54 C-13.556875 53.608125 -14.11375 53.21625 -14.6875 52.8125 C-16.18279405 50.74757012 -16.28717753 49.48836811 -16.6875 47 C-17.06666728 44.85217249 -17.06666728 44.85217249 -18 43 C-19.94700128 41.89875493 -21.81526791 41.37422137 -23.96484375 40.76953125 C-28.00294167 39.24264969 -30.00083143 35.7539362 -32.0859375 32.09375 C-35.23946192 24.87029236 -34.15430553 16.35475276 -32 9 C-29.18295362 3.65732583 -25.75873237 0.25396926 -20.25 -2.25 C-13.20048792 -3.87681048 -6.3768204 -3.69771862 0 0 Z M-22 11 C-24.52672239 16.16829579 -25.06070131 21.74336029 -23.27734375 27.21875 C-21.81815601 30.47976876 -20.67740603 32.54229323 -17.6875 34.5625 C-14.08638953 35.14872729 -11.53549524 34.94700765 -8 34 C-5.41702219 31.81008403 -3.51584156 30.03168312 -2 27 C-1.25441757 17.48015011 -1.25441757 17.48015011 -5 9 C-7.69549602 6.81446268 -9.52212274 6.08134081 -12.9375 5.5 C-17.20124083 6.19612095 -19.03991013 7.90536059 -22 11 Z " fill="#002A58" transform="translate(181,529)"/>
<path d="M0 0 C3.67314051 3.03666731 5.69613739 5.80625402 6.875 10.4375 C6.91625 11.283125 6.9575 12.12875 7 13 C3.7 13 0.4 13 -3 13 C-3.2475 12.195625 -3.495 11.39125 -3.75 10.5625 C-4.70871054 7.92559077 -4.70871054 7.92559077 -6.6875 7.1875 C-7.450625 7.125625 -8.21375 7.06375 -9 7 C-10.134375 6.896875 -11.26875 6.79375 -12.4375 6.6875 C-15.97518849 6.79314941 -15.97518849 6.79314941 -18.8125 8.3125 C-22.19249098 12.46506035 -22.83593027 16.71410118 -23 22 C-22.32874196 26.62960443 -21.21114626 29.91978847 -17.6875 33.0625 C-14.4384614 34.19588556 -12.41392875 34.56898813 -9 34 C-5.89835231 31.44975635 -4.27433584 29.82300753 -3 26 C-5.97 26 -8.94 26 -12 26 C-12 23.36 -12 20.72 -12 18 C-5.73 18 0.54 18 7 18 C7 25.92 7 33.84 7 42 C3 42 -1 42 -5 42 C-5.99 42.495 -5.99 42.495 -7 43 C-20.40599626 44.14372835 -20.40599626 44.14372835 -25.50390625 40.5078125 C-31.34176734 34.62422403 -33.88249364 28.18684986 -34.16796875 19.9609375 C-33.73406814 12.31217795 -31.56158706 6.30290859 -26 1 C-17.61570678 -3.96213272 -8.78021974 -4.5255579 0 0 Z " fill="#002A58" transform="translate(153,471)"/>
<path d="M0 0 C11 0 11 0 13.53393555 2.01953125 C14.062854 2.94121094 14.59177246 3.86289062 15.13671875 4.8125 C15.73291016 5.80507813 16.32910156 6.79765625 16.94335938 7.8203125 C17.51892578 8.86960937 18.09449219 9.91890625 18.6875 11 C19.30560547 12.04929687 19.92371094 13.09859375 20.56054688 14.1796875 C22.07675185 16.76546342 23.54337388 19.38019944 25 22 C25.33 14.74 25.66 7.48 26 0 C29.3 0 32.6 0 36 0 C36 14.19 36 28.38 36 43 C32.7 43 29.4 43 26 43 C23.40347697 40.21688153 21.94195301 38.24938755 20.1875 35 C19.74986328 34.25621094 19.31222656 33.51242187 18.86132812 32.74609375 C18.03020468 31.33010566 17.21379806 29.90527685 16.41870117 28.46875 C14.37921628 24.91974445 12.16943392 21.47109428 10 18 C9.67 26.25 9.34 34.5 9 43 C6.03 43 3.06 43 0 43 C0 28.81 0 14.62 0 0 Z " fill="#002A58" transform="translate(205,470)"/>
<path d="M0 0 C4.25421095 3.81184831 7.56661891 8.13142229 8.21923828 13.95703125 C8.34134484 16.2458906 8.37121468 18.52049163 8.375 20.8125 C8.39949219 21.58142578 8.42398438 22.35035156 8.44921875 23.14257812 C8.48157147 29.53224023 6.95089834 35.00980933 2.36816406 39.65356445 C-1.94805449 43.2449865 -6.69913585 43.45051651 -12.125 43.5 C-12.80594727 43.50644531 -13.48689453 43.51289062 -14.18847656 43.51953125 C-20.43766918 43.36140083 -24.40919143 41.62696331 -28.75 37.1875 C-33.98204716 29.77543319 -33.73973899 21.77515374 -33 13 C-31.42743314 6.59357705 -28.50101531 2.55948049 -23 -1 C-15.2940531 -3.99675713 -7.23201429 -4.25852081 0 0 Z M-20 9 C-22.84730448 12.90211704 -23.4086431 15.70025058 -23.375 20.5 C-23.38273437 21.6034375 -23.39046875 22.706875 -23.3984375 23.84375 C-22.83187882 28.33178344 -21.22016081 30.95414788 -17.8125 33.875 C-13.91857998 35.43256801 -10.9540307 35.40587758 -7 34 C-2.97769888 30.66234588 -1.75377647 28.21565185 -1.0625 23.0625 C-0.78314336 17.59861279 -1.48412155 13.21551466 -4.625 8.625 C-9.71899862 5.13963253 -15.20544063 4.89037768 -20 9 Z " fill="#002A58" transform="translate(376,471)"/>
<path d="M0 0 C11 0 11 0 13.31860352 1.78833008 C13.75100342 2.60712646 14.18340332 3.42592285 14.62890625 4.26953125 C15.12583984 5.15833984 15.62277344 6.04714844 16.13476562 6.96289062 C16.84149414 8.37344727 16.84149414 8.37344727 17.5625 9.8125 C18.06845703 10.74126953 18.57441406 11.67003906 19.09570312 12.62695312 C20.03181111 14.34874537 20.95061516 16.08014267 21.84594727 17.82348633 C23.05375003 20.18927861 23.05375003 20.18927861 25 23 C25.33 15.41 25.66 7.82 26 0 C28.97 0 31.94 0 35 0 C35 14.19 35 28.38 35 43 C26 43 26 43 23.90625 41.3046875 C23.21015625 40.10199219 23.21015625 40.10199219 22.5 38.875 C21.67822266 37.52921875 21.67822266 37.52921875 20.83984375 36.15625 C20.23269531 35.1146875 19.62554687 34.073125 19 33 C17.81922187 31.14372062 16.61985551 29.3005293 15.41625977 27.45898438 C13.59234952 24.65124806 11.79932436 21.82355515 10 19 C9.67 26.92 9.34 34.84 9 43 C6.03 43 3.06 43 0 43 C0 28.81 0 14.62 0 0 Z " fill="#002A58" transform="translate(78,470)"/>
<path d="M0 0 C4.57626987 3.92686572 7.04726764 7.99778611 8 14 C9.04520629 29.92514316 9.04520629 29.92514316 5 36 C0.99660825 40.30624881 -2.3352841 42.83906478 -8.36328125 43.203125 C-9.66652344 43.21859375 -10.96976562 43.2340625 -12.3125 43.25 C-13.60800781 43.27578125 -14.90351563 43.3015625 -16.23828125 43.328125 C-21.81094482 42.84203597 -24.9124786 41.13695419 -28.75 37.125 C-34.18557174 29.57559481 -33.90051143 20.96684255 -33 12 C-31.47697949 5.98579971 -28.03944284 2.42682113 -23 -1 C-15.70577373 -4.40397226 -6.95440316 -4.1433602 0 0 Z M-22 11 C-24.55411172 16.66346511 -24.22380696 22.03267679 -23 28 C-21.63318557 31.28035464 -20.76002968 32.53553742 -17.75 34.375 C-14.08418834 35.20813901 -11.63513295 34.97369633 -8 34 C-4.42368059 30.96790311 -2.16076296 28.90807186 -1.76171875 24.171875 C-1.36266182 16.93973083 -1.36266182 16.93973083 -3.75 10.3125 C-6.83044524 7.14648684 -8.53286465 6.22325973 -12.875 5.5625 C-16.99013198 6.13861848 -19.4211698 7.8543062 -22 11 Z " fill="#002A58" transform="translate(445,529)"/>
<path d="M0 0 C6.744375 -0.1546875 6.744375 -0.1546875 13.625 -0.3125 C15.03217285 -0.35802002 16.4393457 -0.40354004 17.88916016 -0.45043945 C28.20303949 -0.56523561 28.20303949 -0.56523561 31.80078125 2.24609375 C34.85696419 6.07310791 35.92471471 9.11482118 36 14 C35.28790829 16.58942441 34.25246064 18.59142184 33 21 C33 21.99 33 22.98 33 24 C33.33 24.33 33.66 24.66 34 25 C34.08631874 26.34267413 34.10706473 27.68974322 34.09765625 29.03515625 C34.09443359 29.84404297 34.09121094 30.65292969 34.08789062 31.48632812 C34.07532227 32.7615332 34.07532227 32.7615332 34.0625 34.0625 C34.05798828 34.91650391 34.05347656 35.77050781 34.04882812 36.65039062 C34.03700373 38.76695663 34.01906769 40.88348685 34 43 C31.03 43 28.06 43 25 43 C24.93941406 42.08476563 24.87882812 41.16953125 24.81640625 40.2265625 C24.73261719 39.03804688 24.64882813 37.84953125 24.5625 36.625 C24.48128906 35.44164062 24.40007812 34.25828125 24.31640625 33.0390625 C24.18915064 30.08481099 24.18915064 30.08481099 23 28 C19.9600352 27.30662208 19.9600352 27.30662208 16.4375 26.875 C14.313125 26.58625 12.18875 26.2975 10 26 C10 31.61 10 37.22 10 43 C6.7 43 3.4 43 0 43 C0 28.81 0 14.62 0 0 Z M10 8 C10 11.3 10 14.6 10 18 C12.29141286 18.05384521 14.58318188 18.09272087 16.875 18.125 C18.15117187 18.14820313 19.42734375 18.17140625 20.7421875 18.1953125 C24.08593338 18.35641524 24.08593338 18.35641524 26 16 C25.83582968 12.43407381 25.83582968 12.43407381 25 9 C22.11584117 7.55792059 19.58278472 7.90605113 16.375 7.9375 C14.59222656 7.95103516 14.59222656 7.95103516 12.7734375 7.96484375 C11.40058594 7.98224609 11.40058594 7.98224609 10 8 Z " fill="#002A58" transform="translate(302,470)"/>
<path d="M0 0 C6.496875 -0.12375 6.496875 -0.12375 13.125 -0.25 C15.15744873 -0.30462402 15.15744873 -0.30462402 17.23095703 -0.36035156 C27.17240668 -0.45219628 27.17240668 -0.45219628 30.7421875 1.765625 C33.5477555 4.54206946 34.77201523 6.31824218 35.30078125 10.21875 C35.32554844 15.04009712 35.02292911 17.15263568 32 21 C32.2990625 21.67933594 32.598125 22.35867188 32.90625 23.05859375 C34.38664789 27.03980666 34.21666312 30.60657318 34.125 34.8125 C34.11597656 35.60076172 34.10695312 36.38902344 34.09765625 37.20117188 C34.07422504 39.13424666 34.03835838 41.0671638 34 43 C30.7 43 27.4 43 24 43 C23.67 38.05 23.34 33.1 23 28 C19.99221479 26.99740493 17.46179353 26.69685358 14.3125 26.4375 C12.559375 26.293125 10.80625 26.14875 9 26 C9 31.61 9 37.22 9 43 C6.03 43 3.06 43 0 43 C0 28.81 0 14.62 0 0 Z M9 8 C9 11.3 9 14.6 9 18 C11.27024968 18.08097324 13.54132075 18.13917704 15.8125 18.1875 C17.70935547 18.23970703 17.70935547 18.23970703 19.64453125 18.29296875 C22.93321032 18.28405531 22.93321032 18.28405531 24.9609375 16.6484375 C26.25204605 14.96163542 26.25204605 14.96163542 25.8125 12.4375 C25.15372967 9.85558728 25.15372967 9.85558728 23 8 C19.64255888 7.75622117 19.64255888 7.75622117 15.875 7.875 C14.59367187 7.89304687 13.31234375 7.91109375 11.9921875 7.9296875 C11.00476563 7.95289063 10.01734375 7.97609375 9 8 Z " fill="#002A58" transform="translate(107,528)"/>
<path d="M0 0 C10.56 0 21.12 0 32 0 C32 2.64 32 5.28 32 8 C24.74 8 17.48 8 10 8 C10 10.64 10 13.28 10 16 C16.93 16 23.86 16 31 16 C31 18.97 31 21.94 31 25 C24.07 25 17.14 25 10 25 C10 27.97 10 30.94 10 34 C17.59 34 25.18 34 33 34 C33 36.97 33 39.94 33 43 C22.11 43 11.22 43 0 43 C0 28.81 0 14.62 0 0 Z " fill="#002A58" transform="translate(293,528)"/>
<path d="M0 0 C3.89896391 3.4242196 5.62741859 6.78386022 6 12 C2.62297567 12.28511462 -0.63518822 12.46733497 -4 12 C-5.03013277 10.35178756 -6.03114628 8.68496298 -7 7 C-10.03513873 6.53431987 -12.95169613 6.71242416 -16 7 C-17.57273568 9.8424854 -17.57273568 9.8424854 -18 13 C-17.23816406 13.17015625 -16.47632813 13.3403125 -15.69140625 13.515625 C1.14427912 17.46707175 1.14427912 17.46707175 6 23 C7.72447196 26.44894392 7.36671096 30.22156745 7 34 C5.37522535 37.73698169 3.44378693 39.84763317 0 42 C-3.57312995 43.19104332 -6.54553322 43.20528823 -10.3125 43.25 C-11.60800781 43.27578125 -12.90351563 43.3015625 -14.23828125 43.328125 C-19.37952042 42.879668 -22.63087251 41.33212404 -26.3125 37.75 C-28.32545481 34.46962919 -28.70147665 31.80617265 -29 28 C-25.7 28 -22.4 28 -19 28 C-18.67 29.65 -18.34 31.3 -18 33 C-15.17283905 33.94238698 -13.36823877 34.13465647 -10.4375 34.125 C-9.25994141 34.12886719 -9.25994141 34.12886719 -8.05859375 34.1328125 C-5.93561023 34.12976366 -5.93561023 34.12976366 -4 33 C-4 31.35 -4 29.7 -4 28 C-7.99303715 26.17709174 -11.8166156 24.7490995 -16.0625 23.625 C-20.80283677 22.25203661 -23.55727795 20.53099697 -27 17 C-28.57733174 12.26800479 -28.52757348 8.44388532 -26.8125 3.75 C-20.9809589 -5.09785546 -8.3955257 -4.84357252 0 0 Z " fill="#002A58" transform="translate(487,529)"/>
<path d="M0 0 C3.11594552 2.63124288 5.62188838 5.1162309 7 9 C7 10.32 7 11.64 7 13 C3.62297567 13.28511462 0.36481178 13.46733497 -3 13 C-4.03013277 11.35178756 -5.03114628 9.68496298 -6 8 C-9.03513873 7.53431987 -11.95169613 7.71242416 -15 8 C-15.33 9.65 -15.66 11.3 -16 13 C-10.70092525 15.40867034 -5.33242579 17.22364289 0.23046875 18.9375 C2.97399891 19.99002497 4.84297456 21.01652833 7 23 C8.45228719 27.35686158 8.63669736 31.45115105 8 36 C6.02912793 39.87079274 3.05743496 42.49041561 -1 44 C-3.67233608 44.21843936 -6.20562107 44.32474486 -8.875 44.3125 C-9.56980469 44.32861328 -10.26460938 44.34472656 -10.98046875 44.36132812 C-17.00862975 44.36700436 -21.01317555 42.88225474 -25.375 38.75 C-27.41051221 35.30528702 -27.30860339 32.93469324 -27 29 C-23.94975136 28.71224069 -21.03819925 28.54589193 -18 29 C-16.0625 31.4375 -16.0625 31.4375 -15 34 C-11.81857548 35.59071226 -8.46336466 35.39662254 -5 35 C-2.91015769 33.91325006 -2.91015769 33.91325006 -2 32 C-2 30.68 -2 29.36 -2 28 C-3.08539063 27.75765625 -4.17078125 27.5153125 -5.2890625 27.265625 C-6.73452507 26.92772466 -8.17982939 26.58914687 -9.625 26.25 C-10.33785156 26.09273438 -11.05070312 25.93546875 -11.78515625 25.7734375 C-17.88579429 24.31823944 -22.54495078 22.31898469 -26 16.8125 C-27.2703478 11.96929899 -26.81119322 8.62661239 -25 4 C-19.50750957 -3.93359728 -8.06083744 -3.13477012 0 0 Z " fill="#002A58" transform="translate(417,470)"/>
<path d="M0 0 C10.56 0 21.12 0 32 0 C32 2.64 32 5.28 32 8 C24.41 8 16.82 8 9 8 C9 10.64 9 13.28 9 16 C15.93 16 22.86 16 30 16 C30 18.97 30 21.94 30 25 C23.07 25 16.14 25 9 25 C9 27.97 9 30.94 9 34 C16.92 34 24.84 34 33 34 C33 36.97 33 39.94 33 43 C22.11 43 11.22 43 0 43 C0 28.81 0 14.62 0 0 Z " fill="#002A58" transform="translate(264,470)"/>
<path d="M0 0 C10.56 0 21.12 0 32 0 C32 2.64 32 5.28 32 8 C24.41 8 16.82 8 9 8 C9 10.64 9 13.28 9 16 C15.93 16 22.86 16 30 16 C30 18.97 30 21.94 30 25 C23.07 25 16.14 25 9 25 C9 27.97 9 30.94 9 34 C16.92 34 24.84 34 33 34 C33 36.97 33 39.94 33 43 C22.11 43 11.22 43 0 43 C0 28.81 0 14.62 0 0 Z " fill="#002A58" transform="translate(167,470)"/>
<path d="M0 0 C3.3 0 6.6 0 10 0 C10.01981934 0.8878418 10.03963867 1.77568359 10.06005859 2.69042969 C10.13828232 5.99311334 10.22497885 9.29535064 10.31738281 12.59765625 C10.35560024 14.02530398 10.39046572 15.45304563 10.421875 16.88085938 C10.46768401 18.93653868 10.5256498 20.99157554 10.5859375 23.046875 C10.6173584 24.28276367 10.6487793 25.51865234 10.68115234 26.79199219 C10.97881277 29.78682982 11.33196569 31.52944185 13 34 C15.79870027 35.39935013 17.90498792 35.25265405 21 35 C22.80412923 33.99861155 22.80412923 33.99861155 24 32 C24.3307063 29.49271968 24.4882718 27.21862613 24.51171875 24.70703125 C24.52966995 24.00100266 24.54762115 23.29497406 24.56611633 22.56755066 C24.62023178 20.31592759 24.65411722 18.06451657 24.6875 15.8125 C24.72067219 14.28447569 24.75516177 12.75647937 24.79101562 11.22851562 C24.87595825 7.48583011 24.94276248 3.74320759 25 0 C28.3 0 31.6 0 35 0 C35.09924823 4.87461475 35.17164581 9.74863497 35.21972656 14.62402344 C35.23978009 16.28070325 35.26703029 17.93731282 35.30175781 19.59375 C35.35055512 21.98194758 35.37303064 24.36920547 35.390625 26.7578125 C35.41127014 27.49242706 35.43191528 28.22704163 35.45318604 28.98391724 C35.45541488 34.15001522 34.27534488 37.03796726 31 41 C24.52693817 45.29419109 17.48438567 44.71823985 10 44 C6.70939947 43.10978923 5.64395956 42.34350961 3 40 C0.34952296 34.93736579 -0.42228119 30.82428382 -0.29296875 25.09765625 C-0.28872391 24.3750914 -0.28447906 23.65252655 -0.28010559 22.9080658 C-0.26346418 20.62581307 -0.22584248 18.34448067 -0.1875 16.0625 C-0.17243423 14.50457015 -0.15874916 12.9466263 -0.14648438 11.38867188 C-0.11360882 7.59209943 -0.0619309 3.79620513 0 0 Z " fill="#002A58" transform="translate(195,528)"/>
<path d="M0 0 C1.65322266 0.01740234 1.65322266 0.01740234 3.33984375 0.03515625 C4.44457031 0.04417969 5.54929687 0.05320312 6.6875 0.0625 C7.54214844 0.07410156 8.39679688 0.08570313 9.27734375 0.09765625 C11.27712845 5.73724664 13.27079537 11.37894747 15.25878906 17.02270508 C15.93614079 18.94289656 16.61516937 20.86249737 17.29589844 22.78149414 C18.27328414 25.53769334 19.2446473 28.29595076 20.21484375 31.0546875 C20.52107666 31.91415482 20.82730957 32.77362213 21.14282227 33.65913391 C21.42311279 34.4597374 21.70340332 35.26034088 21.9921875 36.08520508 C22.240896 36.78913895 22.48960449 37.49307281 22.74584961 38.21833801 C23.27734375 40.09765625 23.27734375 40.09765625 23.27734375 43.09765625 C19.97734375 43.09765625 16.67734375 43.09765625 13.27734375 43.09765625 C11.79234375 38.64265625 11.79234375 38.64265625 10.27734375 34.09765625 C5.32734375 34.09765625 0.37734375 34.09765625 -4.72265625 34.09765625 C-5.38265625 37.06765625 -6.04265625 40.03765625 -6.72265625 43.09765625 C-10.35265625 43.09765625 -13.98265625 43.09765625 -17.72265625 43.09765625 C-15.54396288 34.57555635 -12.81570999 26.3498036 -9.8515625 18.078125 C-9.08713051 15.94326054 -8.33029469 13.80580511 -7.57421875 11.66796875 C-3.46515782 0.1242883 -3.46515782 0.1242883 0 0 Z M2.27734375 12.09765625 C1.60702656 14.05474305 0.94119692 16.01336738 0.27734375 17.97265625 C-0.09390625 19.06320312 -0.46515625 20.15375 -0.84765625 21.27734375 C-1.82142825 23.92386479 -1.82142825 23.92386479 -1.72265625 26.09765625 C1.24734375 26.09765625 4.21734375 26.09765625 7.27734375 26.09765625 C6.825916 24.32504994 6.36593852 22.55461945 5.90234375 20.78515625 C5.51949219 19.30595703 5.51949219 19.30595703 5.12890625 17.796875 C4.35821201 14.91707465 4.35821201 14.91707465 2.27734375 12.09765625 Z " fill="#002A58" transform="translate(77.72265625,527.90234375)"/>
<path d="M0 0 C3.98926552 2.32775699 7.16839017 5.62889488 8.484375 10.1171875 C8.76953125 12.04296875 8.76953125 12.04296875 8.89453125 15.10546875 C5.49475025 15.45582786 2.27986868 15.64307737 -1.10546875 15.10546875 C-3.60546875 12.16796875 -3.60546875 12.16796875 -5.10546875 9.10546875 C-7.99408584 7.6611602 -9.90194576 7.72858369 -13.10546875 8.10546875 C-15.69042737 10.17343564 -17.55291624 11.87285161 -18.91796875 14.91796875 C-19.49227679 21.6182292 -19.42607782 27.10833427 -16.10546875 33.10546875 C-13.49457535 35.43662357 -12.08344547 35.104696 -8.54296875 34.98046875 C-5.09521588 34.4144825 -5.09521588 34.4144825 -3.23046875 32.23046875 C-1.98559449 30.01984428 -1.98559449 30.01984428 -1.10546875 27.10546875 C2.19453125 27.10546875 5.49453125 27.10546875 8.89453125 27.10546875 C8.29685043 33.38111736 5.98359407 37.26510388 1.26953125 41.41796875 C-4.30334104 45.37764116 -10.47123804 44.63175968 -17.10546875 44.10546875 C-21.29163407 42.88246553 -23.64453309 40.66606617 -26.41796875 37.29296875 C-30.76659932 29.07888878 -31.57194531 20.13694929 -28.85546875 11.23046875 C-26.70002808 5.68366958 -24.23967167 2.45731659 -18.85546875 -0.20703125 C-12.36675356 -2.81950905 -6.49265749 -2.72768451 0 0 Z " fill="#002A58" transform="translate(361.10546875,527.89453125)"/>
<path d="M0 0 C0 2.64 0 5.28 0 8 C-1.98 8.66 -3.96 9.32 -6 10 C-6 11.98 -6 13.96 -6 16 C-4.02 16.66 -2.04 17.32 0 18 C0 20.31 0 22.62 0 25 C-1.98 25.66 -3.96 26.32 -6 27 C-6.85974801 29.29294488 -6.85974801 29.29294488 -7 32 C-5.5 34.5 -5.5 34.5 -3 36 C-0.34872531 36.16977494 -0.34872531 36.16977494 2 35 C4.29481979 31.60625242 4.38405348 28.2657753 4.625 24.25 C4.69976562 23.07953125 4.77453125 21.9090625 4.8515625 20.703125 C4.92503906 19.36507813 4.92503906 19.36507813 5 18 C7.97 18 10.94 18 14 18 C14.58927163 33.53931107 14.58927163 33.53931107 11 40 C7.22237135 43.97645121 3.77159262 44.30786906 -1.5 44.5 C-6.77257211 44.31984378 -10.13532591 43.86467409 -14 40 C-16.9156441 35.62653385 -17.56872801 32.21334006 -17 27 C-16.46375 26.113125 -15.9275 25.22625 -15.375 24.3125 C-14.92125 23.549375 -14.4675 22.78625 -14 22 C-14.7483533 20.08334635 -14.7483533 20.08334635 -16 18 C-16.95903338 13.42614848 -17.39226068 11.09420084 -15.8125 6.6875 C-11.61815757 0.4683026 -7.2265747 -0.13635047 0 0 Z " fill="#002A58" transform="translate(468,470)"/>
<path d="M0 0 C11.88 0 23.76 0 36 0 C36 2.64 36 5.28 36 8 C31.71 8 27.42 8 23 8 C23 19.55 23 31.1 23 43 C19.7 43 16.4 43 13 43 C13 31.45 13 19.9 13 8 C8.71 8 4.42 8 0 8 C0 5.36 0 2.72 0 0 Z " fill="#002A58" transform="translate(252,528)"/>
<path d="M0 0 C11.55 0 23.1 0 35 0 C35 2.64 35 5.28 35 8 C31.04 8 27.08 8 23 8 C23 19.55 23 31.1 23 43 C19.7 43 16.4 43 13 43 C13 31.45 13 19.9 13 8 C8.71 8 4.42 8 0 8 C0 5.36 0 2.72 0 0 Z " fill="#002A58" transform="translate(373,528)"/>
<path d="M0 0 C3.3 0 6.6 0 10 0 C10 14.19 10 28.38 10 43 C6.7 43 3.4 43 0 43 C0 28.81 0 14.62 0 0 Z " fill="#002A58" transform="translate(237,528)"/>
<path d="M0 0 C3.3 0 6.6 0 10 0 C10 14.19 10 28.38 10 43 C6.7 43 3.4 43 0 43 C0 28.81 0 14.62 0 0 Z " fill="#002A58" transform="translate(247,470)"/>
<path d="M0 0 C3.3 0 6.6 0 10 0 C10 14.19 10 28.38 10 43 C6.7 43 3.4 43 0 43 C0 28.81 0 14.62 0 0 Z " fill="#002A58" transform="translate(61,470)"/>
</svg>
